<svg xmlns="http://www.w3.org/2000/svg" width="14.545" height="21.113"><path d="M14.201 5.255a6.577 6.577 0 00-.341-.845A7.233 7.233 0 00-.005 6.55v.9c0 .038.013.375.031.544.263 2.1 1.921 4.335 3.16 6.437 1.333 2.252 2.715 4.467 4.085 6.681.845-1.445 1.686-2.909 2.512-4.316.225-.413.486-.826.711-1.22.15-.263.437-.525.568-.769 1.332-2.44 3.477-4.9 3.477-7.319v-.994a7.492 7.492 0 00-.338-1.239zM7.233 9.778a2.581 2.581 0 01-2.471-1.764 2.447 2.447 0 01-.069-.657v-.582a2.444 2.444 0 012.622-2.4 2.658 2.658 0 012.663 2.7 2.726 2.726 0 01-2.745 2.703z" fill="#767676"/></svg>
