<svg xmlns="http://www.w3.org/2000/svg" width="154.842" height="27.075"><path d="M13.116.853L9.841 7.32a1.561 1.561 0 01-1.177.833L1.34 9.191a1.515 1.515 0 00-.867 2.6l5.3 5.036a1.5 1.5 0 01.449 1.349l-1.251 7.112a1.556 1.556 0 002.269 1.607l6.55-3.357a1.6 1.6 0 011.455 0l6.55 3.357a1.556 1.556 0 002.269-1.607l-1.251-7.111a1.5 1.5 0 01.449-1.349l5.3-5.036a1.515 1.515 0 00-.867-2.6l-7.323-1.039a1.561 1.561 0 01-1.173-.833L15.92.853a1.581 1.581 0 00-2.804 0z" fill="#fff"/><path d="M55.797.853l3.193 6.47a1.524 1.524 0 001.148.834l7.136 1.034a1.524 1.524 0 01.845 2.6l-5.167 5.036a1.525 1.525 0 00-.438 1.349l1.219 7.111a1.525 1.525 0 01-2.212 1.607l-6.386-3.357a1.526 1.526 0 00-1.419 0l-6.382 3.359a1.525 1.525 0 01-2.212-1.607l1.219-7.111a1.525 1.525 0 00-.438-1.349l-5.166-5.038a1.524 1.524 0 01.845-2.6l7.14-1.038a1.524 1.524 0 001.152-.833L53.063.853a1.524 1.524 0 012.734 0z" fill="#515f6c"/><path d="M97.154.853l3.193 6.47a1.524 1.524 0 001.148.834l7.136 1.034a1.524 1.524 0 01.845 2.6l-5.167 5.036a1.525 1.525 0 00-.438 1.349l1.219 7.111a1.525 1.525 0 01-2.212 1.607l-6.386-3.357a1.526 1.526 0 00-1.419 0l-6.382 3.359a1.525 1.525 0 01-2.212-1.607l1.219-7.111a1.525 1.525 0 00-.438-1.349l-5.166-5.038a1.524 1.524 0 01.845-2.6l7.14-1.038a1.524 1.524 0 001.152-.833L94.42.853a1.524 1.524 0 012.734 0z" opacity=".269" fill="#fff"/><path d="M142.053.853l3.193 6.47a1.524 1.524 0 001.148.834l7.136 1.034a1.524 1.524 0 01.845 2.6l-5.167 5.036a1.525 1.525 0 00-.438 1.349l1.219 7.111a1.525 1.525 0 01-2.212 1.607l-6.386-3.357a1.526 1.526 0 00-1.419 0l-6.382 3.359a1.525 1.525 0 01-2.212-1.607l1.219-7.111a1.525 1.525 0 00-.438-1.349l-5.166-5.038a1.524 1.524 0 01.845-2.6l7.14-1.038a1.524 1.524 0 001.152-.833l3.189-6.467a1.524 1.524 0 012.734 0z" fill="#fafbfc" opacity=".269"/></svg>
