<svg xmlns="http://www.w3.org/2000/svg" width="624.56" height="598.202"><path d="M432.65 130.887v113.312l4.282 9.127 158.647 282.17a23.435 23.435 0 01-.608 16.565c-2.32 5.282-6.477 8.622-11.024 8.836H40.613c-4.547-.214-8.7-3.554-11.008-8.836a23.435 23.435 0 01-.607-16.565l158.647-282.17 4.266-9.127V-.001h-49.5c-7.676 0-13.889 8.35-13.889 18.643 0 10.312 6.213 18.662 13.889 18.662h21.739v196.117L4.801 517.087a72.1 72.1 0 00.857 53.869c7.24 16.545 20.335 26.857 34.6 27.246h544.05c14.278-.389 27.373-10.7 34.6-27.246a72.1 72.1 0 00.856-53.869L460.411 233.421V130.887h21.752v-.019c7.661 0 13.873-8.35 13.873-18.643 0-10.312-6.212-18.662-13.873-18.662H432.65z" fill="#fff" fill-rule="evenodd"/></svg>
