<svg xmlns="http://www.w3.org/2000/svg" width="207.955" height="56.021"><defs><style>.prefix__prefix__prefix__prefix__c{fill:#112336}.prefix__prefix__prefix__prefix__d{fill:#e14923}.prefix__prefix__prefix__prefix__c,.prefix__prefix__prefix__prefix__d{fill-rule:evenodd}</style></defs><path d="M62.539 22.958h3.66v21.357H61.99v-16.9l-4.027 1.126-1.036-3.6zM78.006 44.74a7.4 7.4 0 01-6.27-3.034 13.142 13.142 0 01-2.273-8.07 13.143 13.143 0 012.273-8.068 7.4 7.4 0 016.27-3.036 7.39 7.39 0 016.284 3.036 13.2 13.2 0 012.257 8.068 13.2 13.2 0 01-2.257 8.07 7.385 7.385 0 01-6.284 3.034zm-3.235-5.9a3.566 3.566 0 003.235 1.784 3.594 3.594 0 003.249-1.8 9.936 9.936 0 001.113-5.188 10 10 0 00-1.113-5.216 3.6 3.6 0 00-3.249-1.8 3.561 3.561 0 00-3.235 1.8 10.125 10.125 0 00-1.1 5.216 10.046 10.046 0 001.101 5.204zm23.125-10.207a5.523 5.523 0 014.135 1.679 6.376 6.376 0 011.631 4.638v9.365h-3.935v-8.878a3.13 3.13 0 00-.823-2.334 3.009 3.009 0 00-2.2-.808 3.243 3.243 0 00-2.441.947 3.93 3.93 0 00-.916 2.837v8.236h-3.935V22.958h3.935v7.814a5.082 5.082 0 014.549-2.139zm22.119 13.776a7.831 7.831 0 01-5.736 2.331 7.785 7.785 0 01-5.72-2.331 7.784 7.784 0 01-2.333-5.722 7.771 7.771 0 012.333-5.719 7.778 7.778 0 015.72-2.336 7.823 7.823 0 015.736 2.336 7.742 7.742 0 012.35 5.719 7.755 7.755 0 01-2.35 5.722zm-8.679-2.7a3.967 3.967 0 002.943 1.189 4.019 4.019 0 002.96-1.189 4.1 4.1 0 001.189-3.022 4.094 4.094 0 00-1.189-3.02 4.02 4.02 0 00-2.96-1.19 3.969 3.969 0 00-2.943 1.19 4.122 4.122 0 00-1.175 3.02 4.128 4.128 0 001.176 3.022zm23.873-10.647h3.936v15.255h-3.936v-1.71a5.082 5.082 0 01-4.545 2.134 5.515 5.515 0 01-4.134-1.678 6.36 6.36 0 01-1.633-4.636v-9.365h3.936v8.878a3.124 3.124 0 00.823 2.333 3 3 0 002.2.809 3.238 3.238 0 002.441-.947 3.938 3.938 0 00.914-2.837zm11.471 2.622a4.111 4.111 0 011.816-2.2 5.536 5.536 0 012.822-.731v4.393a4.636 4.636 0 00-3.219.731 3.5 3.5 0 00-1.418 3.144v7.291h-3.935V29.061h3.935z" fill="#112336"/><path d="M153.894 44.315v-21.78h1.969v21.78zm18.976-14.918h1.969V44.31h-1.969v-2.922a6.682 6.682 0 01-6.027 3.281 7.394 7.394 0 01-5.446-2.267 7.575 7.575 0 01-2.253-5.549 7.571 7.571 0 012.253-5.551 7.394 7.394 0 015.446-2.267 6.683 6.683 0 016.027 3.282zm-10.055 11.649a5.653 5.653 0 004.177 1.718 5.655 5.655 0 004.177-1.718 5.718 5.718 0 001.7-4.19 5.732 5.732 0 00-1.7-4.194 5.653 5.653 0 00-4.177-1.715 5.65 5.65 0 00-4.177 1.715 5.732 5.732 0 00-1.7 4.194 5.718 5.718 0 001.699 4.19zm24.196-12.007a7.4 7.4 0 015.446 2.267 7.575 7.575 0 012.252 5.551 7.579 7.579 0 01-2.252 5.549 7.4 7.4 0 01-5.446 2.267 6.679 6.679 0 01-6.027-3.281v2.922h-1.969V23.431h1.969v8.89a6.68 6.68 0 016.027-3.282zm-4.325 12.007a5.653 5.653 0 004.177 1.718 5.65 5.65 0 004.176-1.718 5.712 5.712 0 001.7-4.19 5.726 5.726 0 00-1.7-4.194 5.647 5.647 0 00-4.176-1.715 5.65 5.65 0 00-4.177 1.715 5.732 5.732 0 00-1.7 4.194 5.718 5.718 0 001.699 4.191zm16.557-7.781a1.808 1.808 0 00.907 1.587 8.142 8.142 0 002.19.952l2.565.732a4.621 4.621 0 012.166 1.326 3.574 3.574 0 01.882 2.515 3.777 3.777 0 01-1.505 3.1 6.088 6.088 0 01-3.894 1.193 6.7 6.7 0 01-3.655-.955 5.1 5.1 0 01-2.1-2.476l1.671-.986a3.491 3.491 0 001.507 1.836 4.814 4.814 0 002.581.672 4.75 4.75 0 002.446-.583 1.946 1.946 0 00.984-1.8 1.843 1.843 0 00-.895-1.609 7.824 7.824 0 00-2.179-.965l-2.565-.731a4.772 4.772 0 01-2.177-1.306 3.424 3.424 0 01-.895-2.463 3.825 3.825 0 011.447-3.041 5.463 5.463 0 013.656-1.224 6.1 6.1 0 013.191.821 5.021 5.021 0 012.029 2.222l-1.641.955a3.471 3.471 0 00-3.579-2.089 3.957 3.957 0 00-2.21.6 1.928 1.928 0 00-.927 1.717z" fill="#e14923"/><path class="prefix__prefix__prefix__prefix__c" d="M30.602 18.289v8.171l.385.658L45.25 51.496a1.381 1.381 0 01-.05 1.2 1.191 1.191 0 01-.991.637H3.65a1.187 1.187 0 01-.99-.637 1.381 1.381 0 01-.055-1.194L16.873 27.12l.384-.658V8.851h-4.452a1.3 1.3 0 00-1.249 1.344 1.3 1.3 0 001.249 1.346h1.955v14.141L.429 50.172a4.253 4.253 0 00.077 3.884 3.66 3.66 0 003.111 1.965h40.621a3.657 3.657 0 003.112-1.965 4.253 4.253 0 00.077-3.884l-14.331-24.49v-7.393h1.956a1.3 1.3 0 001.248-1.344 1.3 1.3 0 00-1.25-1.349h-4.453z"/><path class="prefix__prefix__prefix__prefix__d" d="M27.957 25.484v-7.242a8.455 8.455 0 01-3.914-.877 7.366 7.366 0 00-4.205-1.08v9.2c-1.141 2.238-2.413 4.832-3.919 7.238 2.564-.675 6.64-1.458 10.306 1.084 2.474 1.708 4.281 1.8 6.576.9z"/><path d="M36.108 40.549c-.5.179-.99.36-1.462.517l-.608.2a14.622 14.622 0 01-1.755.472c-.517.112-.989.225-1.462.293a.135.135 0 01-.09.022 12.825 12.825 0 01-9.333-2.5c-.181-.112-.337-.246-.5-.36l-.2-.134a5.914 5.914 0 00-.7-.449 6.61 6.61 0 00-.809-.4 2.875 2.875 0 00-.675-.293 3.4 3.4 0 00-.63-.2 7.26 7.26 0 00-1.844-.36c-.291-.022-.562-.045-.854-.045a6.98 6.98 0 00-2.025.293c.4-.653.832-1.283 1.238-1.934.291-.473.584-.945.877-1.395 2.564-.675 6.95-1.395 10.616 1.147a7.545 7.545 0 007.377.63z" fill="#ce281b" fill-rule="evenodd"/><path class="prefix__prefix__prefix__prefix__c" d="M21.496 41.177a13.682 13.682 0 009.689 2.5.142.142 0 00.092-.022c.49-.067.98-.179 1.518-.291q.84-.2 1.82-.473l.63-.2c.49-.158 1-.337 1.518-.518l5.439 8.344a.609.609 0 01-.536.945H6.533a1.014 1.014 0 01-.888-1.553c2.312-3.553 4.622-7.129 6.957-10.683a10.186 10.186 0 012.452-.291c.3 0 .606.022.886.045a7.727 7.727 0 011.914.36 3.141 3.141 0 01.654.2c.234.09.468.181.7.293a7.314 7.314 0 01.842.4 7.644 7.644 0 01.723.449l.21.136"/><path class="prefix__prefix__prefix__prefix__d" d="M23.612 10.387a1.358 1.358 0 011.358 1.358 1.357 1.357 0 01-1.358 1.357 1.357 1.357 0 01-1.358-1.357 1.358 1.358 0 011.358-1.358zM21.736 0a3.2 3.2 0 013.2 3.2 3.2 3.2 0 01-3.2 3.2 3.2 3.2 0 01-3.2-3.2 3.2 3.2 0 013.2-3.2zm6.872 4.795a2.237 2.237 0 012.238 2.236 2.238 2.238 0 01-2.238 2.238 2.237 2.237 0 01-2.236-2.238 2.236 2.236 0 012.236-2.236z"/></svg>
