<?xml version="1.0" standalone="no"?>
<!DOCTYPE svg PUBLIC "-//W3C//DTD SVG 1.1//EN" "http://www.w3.org/Graphics/SVG/1.1/DTD/svg11.dtd" >
<svg xmlns="http://www.w3.org/2000/svg" xmlns:xlink="http://www.w3.org/1999/xlink" version="1.1">
<metadata>
Created by FontForge 20190801 at Mon Sep  5 13:04:24 2016
 By Unknown
Copyright 2016 Indian Type Foundry
</metadata>
<defs>
<font id="AssociateSans-Regular" horiz-adv-x="500" >
  <font-face 
    font-family="Associate Sans"
    font-weight="400"
    font-stretch="normal"
    units-per-em="1000"
    panose-1="0 0 0 0 0 0 0 0 0 0"
    ascent="750"
    descent="-250"
    x-height="490"
    cap-height="650"
    bbox="-150 -260 1085 954"
    underline-thickness="45"
    underline-position="-100"
    stemh="104"
    stemv="117"
    unicode-range="U+000D-FB02"
  />
<missing-glyph horiz-adv-x="658" 
d="M474 96v458h-290v-458h290zM72 0v650h514v-650h-514z" />
    <glyph glyph-name="fi" unicode="fi" horiz-adv-x="623" 
d="M496 579c-40 0 -72 31 -72 69s32 68 72 68c39 0 71 -30 71 -68s-32 -69 -71 -69zM551 490v-490h-110v490h110zM341 400h-132v-400h-110v400h-77v90h77v22c0 118 75 180 179 180c40 0 77 -9 105 -23l-32 -78c-19 7 -44 11 -63 11c-48 0 -79 -25 -79 -90v-22h132v-90z" />
    <glyph glyph-name="fl" unicode="fl" horiz-adv-x="623" 
d="M551 680v-680h-110v680h110zM341 400h-132v-400h-110v400h-77v90h77v22c0 118 75 180 179 180c40 0 77 -9 105 -23l-32 -78c-19 7 -44 11 -63 11c-48 0 -79 -25 -79 -90v-22h132v-90z" />
    <glyph glyph-name=".notdef" horiz-adv-x="658" 
d="M474 96v458h-290v-458h290zM72 0v650h514v-650h-514z" />
    <glyph glyph-name=".null" horiz-adv-x="0" 
 />
    <glyph glyph-name=".null" horiz-adv-x="0" 
 />
    <glyph glyph-name="CR" unicode="&#xd;" horiz-adv-x="0" 
 />
    <glyph glyph-name="space" unicode=" " horiz-adv-x="260" 
 />
    <glyph glyph-name="uni00A0" unicode="&#xa0;" horiz-adv-x="260" 
 />
    <glyph glyph-name="A" unicode="A" horiz-adv-x="618" 
d="M402 247l-96 291l-96 -291h192zM484 0l-53 160h-250l-53 -160h-110l228 650h126l228 -650h-116z" />
    <glyph glyph-name="B" unicode="B" horiz-adv-x="614" 
d="M315 553h-118v-180h108c65 0 118 24 118 94c0 64 -53 86 -108 86zM343 281h-146v-184h146c58 0 114 24 114 93c0 63 -49 91 -114 91zM85 0v650h229c139 0 223 -67 223 -167c0 -69 -34 -122 -106 -148c97 -21 139 -79 139 -153c0 -111 -82 -182 -218 -182h-267z" />
    <glyph glyph-name="C" unicode="C" horiz-adv-x="659" 
d="M350 662c147 0 227 -73 274 -190l-106 -35c-32 79 -82 124 -166 124c-105 0 -191 -89 -191 -236s82 -237 192 -237c82 0 139 48 173 125l105 -37c-49 -109 -137 -188 -278 -188c-196 0 -309 143 -309 337c0 191 124 337 306 337z" />
    <glyph glyph-name="D" unicode="D" horiz-adv-x="675" 
d="M320 553h-122v-456h122c110 0 196 80 196 228c0 147 -86 228 -196 228zM85 0v650h235c186 0 312 -140 312 -323c0 -188 -126 -327 -312 -327h-235z" />
    <glyph glyph-name="E" unicode="E" horiz-adv-x="535" 
d="M85 0v650h412v-97h-300v-173h230v-93h-230v-190h300v-97h-412z" />
    <glyph glyph-name="F" unicode="F" horiz-adv-x="518" 
d="M425 266h-227v-266h-113v650h405v-97h-292v-190h227v-97z" />
    <glyph glyph-name="G" unicode="G" horiz-adv-x="698" 
d="M547 0v87c-47 -65 -121 -99 -200 -99c-171 0 -304 141 -304 337s134 337 307 337c144 0 249 -78 280 -214l-107 -26c-16 82 -79 139 -168 139c-105 0 -194 -89 -194 -236s87 -237 196 -237c79 0 157 48 174 148h-147v85h254v-321h-91z" />
    <glyph glyph-name="H" unicode="H" horiz-adv-x="693" 
d="M495 0v289h-297v-289h-113v650h113v-265h297v265h113v-650h-113z" />
    <glyph glyph-name="I" unicode="I" horiz-adv-x="283" 
d="M85 0v650h113v-650h-113z" />
    <glyph glyph-name="J" unicode="J" horiz-adv-x="433" 
d="M357 650v-458c0 -128 -72 -204 -198 -204c-55 0 -109 14 -155 50l60 82c30 -22 60 -32 92 -32c52 0 88 30 88 106v456h113z" />
    <glyph glyph-name="K" unicode="K" horiz-adv-x="623" 
d="M481 0l-182 299l-101 -123v-176h-113v650h113v-332l266 332h124l-209 -265l232 -385h-130z" />
    <glyph glyph-name="L" unicode="L" horiz-adv-x="513" 
d="M85 0v650h113v-553h290v-97h-403z" />
    <glyph glyph-name="M" unicode="M" horiz-adv-x="803" 
d="M355 158l-168 331v-489h-102v650h123l193 -384l193 384h124v-650h-107v496l-169 -338h-87z" />
    <glyph glyph-name="N" unicode="N" horiz-adv-x="686" 
d="M478 0l-294 504v-504h-99v650h124l292 -502v502h100v-650h-123z" />
    <glyph glyph-name="O" unicode="O" horiz-adv-x="725" 
d="M362 -12c-188 0 -320 151 -320 337s132 337 320 337c189 0 320 -151 320 -337s-131 -337 -320 -337zM362 92c110 0 203 88 203 233c0 144 -93 232 -203 232s-202 -88 -202 -232c0 -145 92 -233 202 -233z" />
    <glyph glyph-name="P" unicode="P" horiz-adv-x="585" 
d="M326 553h-128v-226h128c61 0 117 30 117 113c0 84 -56 113 -117 113zM326 230h-128v-230h-113v650h241c145 0 232 -84 232 -208c0 -128 -87 -212 -232 -212z" />
    <glyph glyph-name="Q" unicode="Q" horiz-adv-x="725" 
d="M627 -143h-95c-82 0 -141 40 -180 131c-183 5 -310 154 -310 337c0 186 132 337 320 337c189 0 320 -151 320 -337c0 -155 -91 -286 -231 -325c23 -34 54 -47 98 -47h78v-96zM362 92c110 0 203 88 203 233c0 144 -93 232 -203 232s-202 -88 -202 -232
c0 -145 92 -233 202 -233z" />
    <glyph glyph-name="R" unicode="R" horiz-adv-x="613" 
d="M332 553h-134v-206h134c57 0 110 28 110 105c0 74 -53 101 -110 101zM456 0l-144 252h-114v-252h-113v650h247c145 0 224 -77 224 -192c0 -90 -46 -156 -133 -183l162 -275h-129z" />
    <glyph glyph-name="S" unicode="S" horiz-adv-x="586" 
d="M302 -11c-129 0 -226 57 -268 147l102 41c35 -62 95 -93 166 -93c80 0 124 35 124 89c0 139 -371 58 -371 299c0 104 84 190 229 190c124 0 209 -63 248 -155l-105 -37c-30 61 -77 96 -143 96c-74 0 -114 -35 -114 -87c0 -147 371 -61 371 -302
c0 -108 -88 -188 -239 -188z" />
    <glyph glyph-name="T" unicode="T" horiz-adv-x="536" 
d="M515 555h-191v-555h-113v555h-190v95h494v-95z" />
    <glyph glyph-name="U" unicode="U" horiz-adv-x="647" 
d="M73 241v409h113v-409c0 -111 60 -155 138 -155c76 0 139 44 139 155v409h110v-409c0 -150 -84 -253 -250 -253c-163 0 -250 103 -250 253z" />
    <glyph glyph-name="V" unicode="V" horiz-adv-x="608" 
d="M241 0l-226 650h120l173 -527l170 527h115l-224 -650h-128z" />
    <glyph glyph-name="W" unicode="W" horiz-adv-x="903" 
d="M182 0l-159 650h117l122 -542l135 542h119l134 -540l121 540h109l-159 -650h-141l-126 494l-124 -494h-148z" />
    <glyph glyph-name="X" unicode="X" horiz-adv-x="585" 
d="M439 0l-152 246l-152 -246h-117l208 325l-201 325h128l143 -236l145 236h118l-203 -313l211 -337h-128z" />
    <glyph glyph-name="Y" unicode="Y" horiz-adv-x="565" 
d="M340 0h-113v250l-222 400h123l160 -296l156 296h116l-220 -398v-252z" />
    <glyph glyph-name="Z" unicode="Z" horiz-adv-x="533" 
d="M27 0v86l339 467h-330v97h463v-87l-335 -466h348v-97h-485z" />
    <glyph glyph-name="AE" unicode="&#xc6;" horiz-adv-x="860" 
d="M412 257v307l-157 -307h157zM412 0v170h-202l-87 -170h-114l349 650h463v-97h-297v-172h227v-97h-227v-187h297v-97h-409z" />
    <glyph glyph-name="OE" unicode="&#x152;" horiz-adv-x="884" 
d="M362 97h73v456h-73c-110 0 -202 -87 -202 -228c0 -143 92 -228 202 -228zM362 0c-188 0 -320 145 -320 325c0 178 132 325 320 325h483v-97h-298v-172h228v-97h-228v-187h298v-97h-483z" />
    <glyph glyph-name="Lslash" unicode="&#x141;" horiz-adv-x="526" 
d="M98 0v265l-63 -16v91l63 17v293h113v-264l159 42v-92l-159 -41v-198h290v-97h-403z" />
    <glyph glyph-name="Oslash" unicode="&#xd8;" horiz-adv-x="725" 
d="M362 -12c-69 0 -130 20 -180 55l-37 -43h-127l94 109c-44 59 -70 134 -70 216c0 186 132 337 320 337c69 0 131 -20 181 -55l37 43h126l-94 -109c44 -59 70 -134 70 -216c0 -186 -131 -337 -320 -337zM160 325c0 -49 11 -92 29 -127l282 326c-32 21 -69 33 -109 33
c-110 0 -202 -88 -202 -232zM362 92c110 0 203 88 203 233c0 49 -11 92 -30 127l-282 -327c32 -21 69 -33 109 -33z" />
    <glyph glyph-name="Eth" unicode="&#xd0;" horiz-adv-x="686" 
d="M324 287h-115v-190h122c110 0 196 80 196 228c0 147 -86 228 -196 228h-122v-172h115v-94zM96 0v287h-77v94h77v269h235c186 0 312 -140 312 -323c0 -188 -126 -327 -312 -327h-235z" />
    <glyph glyph-name="Thorn" unicode="&#xde;" horiz-adv-x="585" 
d="M326 445h-128v-214h128c61 0 117 28 117 107c0 80 -56 107 -117 107zM326 134h-128v-134h-113v650h113v-108h128c145 0 232 -81 232 -201c0 -125 -87 -207 -232 -207z" />
    <glyph glyph-name="a" unicode="a" horiz-adv-x="539" 
d="M231 72c72 0 135 44 135 116v15h-144c-54 0 -75 -25 -75 -62c0 -44 33 -69 84 -69zM373 0v77c-36 -62 -99 -89 -164 -89c-99 0 -170 59 -170 150c0 84 61 140 162 140h142c18 0 23 6 23 21v8c0 70 -39 106 -96 106s-91 -31 -112 -83l-100 26c34 93 111 146 212 146
c131 0 205 -77 205 -207v-295h-102z" />
    <glyph glyph-name="b" unicode="b" horiz-adv-x="601" 
d="M338 -12c-72 0 -128 30 -161 95v-83h-105v680h108v-278c31 69 87 100 158 100c131 0 220 -113 220 -257c0 -145 -89 -257 -220 -257zM314 80c81 0 131 65 131 165c0 99 -51 165 -131 165c-81 0 -132 -66 -132 -165c0 -100 51 -165 132 -165z" />
    <glyph glyph-name="c" unicode="c" horiz-adv-x="522" 
d="M287 410c-76 0 -132 -60 -132 -165c0 -104 51 -165 133 -165c56 0 91 24 121 73l90 -36c-37 -75 -109 -129 -216 -129c-148 0 -241 110 -241 257c0 151 104 257 244 257c101 0 170 -51 208 -129l-87 -45c-31 55 -65 82 -120 82z" />
    <glyph glyph-name="d" unicode="d" horiz-adv-x="601" 
d="M286 80c82 0 132 65 132 165c0 99 -50 165 -132 165c-81 0 -131 -66 -131 -165c0 -100 50 -165 131 -165zM423 0v92c-31 -71 -88 -104 -161 -104c-131 0 -219 110 -219 257c0 146 88 257 219 257c70 0 126 -29 159 -91v269h107v-680h-105z" />
    <glyph glyph-name="e" unicode="e" horiz-adv-x="551" 
d="M283 415c-67 0 -118 -47 -126 -124h246c-6 80 -56 124 -120 124zM504 114c-40 -76 -110 -126 -214 -126c-161 0 -248 110 -248 257s99 257 241 257c150 0 247 -121 225 -286h-352c5 -86 52 -137 134 -137c56 0 93 22 124 71z" />
    <glyph glyph-name="f" unicode="f" horiz-adv-x="357" 
d="M341 400h-132v-400h-110v400h-77v90h77v22c0 118 75 180 179 180c40 0 77 -9 105 -23l-32 -78c-19 7 -44 11 -63 11c-48 0 -79 -25 -79 -90v-22h132v-90z" />
    <glyph glyph-name="g" unicode="g" horiz-adv-x="568" 
d="M277 423c-69 0 -107 -33 -107 -89c0 -52 43 -89 107 -89c70 0 107 34 107 89c0 53 -42 89 -107 89zM535 -37c0 -93 -83 -175 -262 -175c-170 0 -242 66 -242 141c0 25 9 48 25 66l53 10c-44 19 -69 56 -69 99c0 46 29 86 89 102c-42 29 -66 72 -66 128
c0 107 87 168 214 168c32 0 60 -4 86 -12h195v-91l-101 9c24 -24 35 -51 35 -84c0 -99 -83 -158 -215 -158h-1v0h-88c-35 0 -51 -17 -51 -39s16 -37 51 -37h189c103 0 158 -50 158 -127zM275 -134c102 0 155 32 155 77c0 34 -21 48 -69 48h-179c-9 0 -18 1 -27 2
c-9 -16 -14 -32 -14 -48c0 -47 38 -79 134 -79z" />
    <glyph glyph-name="h" unicode="h" horiz-adv-x="586" 
d="M182 279v-279h-110v680h110v-273c30 64 84 95 151 95c137 0 189 -91 189 -213v-289h-110v284c0 76 -36 120 -111 120s-119 -46 -119 -125z" />
    <glyph glyph-name="i" unicode="i" horiz-adv-x="255" 
d="M127 579c-39 0 -71 31 -71 69s32 68 71 68c40 0 72 -30 72 -68s-32 -69 -72 -69zM182 490v-490h-110v490h110z" />
    <glyph glyph-name="j" unicode="j" horiz-adv-x="255" 
d="M127 579c-39 0 -71 31 -71 69s32 68 71 68c40 0 72 -30 72 -68s-32 -69 -72 -69zM182 490v-532c0 -103 -52 -170 -156 -170c-37 0 -72 11 -101 25l30 82c18 -8 37 -15 53 -15c44 0 64 21 64 78v532h110z" />
    <glyph glyph-name="k" unicode="k" horiz-adv-x="541" 
d="M414 0l-147 219l-85 -95v-124h-110v680h110v-427l216 237h123l-176 -197l196 -293h-127z" />
    <glyph glyph-name="l" unicode="l" horiz-adv-x="255" 
d="M182 680v-680h-110v680h110z" />
    <glyph glyph-name="m" unicode="m" horiz-adv-x="900" 
d="M182 279v-279h-110v490h103v-87c29 67 84 99 152 99c88 0 140 -41 165 -106c29 72 87 106 161 106c132 0 182 -91 182 -213v-289h-110v284c0 76 -33 120 -104 120s-112 -46 -112 -125v-279h-110v284c0 76 -33 120 -105 120c-70 0 -112 -46 -112 -125z" />
    <glyph glyph-name="n" unicode="n" horiz-adv-x="586" 
d="M182 279v-279h-110v490h103v-89c30 68 87 101 158 101c137 0 189 -91 189 -213v-289h-110v284c0 76 -36 120 -111 120s-119 -46 -119 -125z" />
    <glyph glyph-name="o" unicode="o" horiz-adv-x="571" 
d="M285 -12c-145 0 -244 114 -244 257s99 257 244 257c146 0 244 -114 244 -257s-98 -257 -244 -257zM285 82c76 0 132 61 132 163s-56 163 -132 163c-75 0 -132 -61 -132 -163s57 -163 132 -163z" />
    <glyph glyph-name="p" unicode="p" horiz-adv-x="601" 
d="M314 80c81 0 131 65 131 165c0 99 -50 165 -131 165s-132 -66 -132 -165c0 -100 51 -165 132 -165zM338 -12c-70 0 -125 28 -158 90v-278h-108v690h105v-95c31 74 88 107 161 107c131 0 220 -111 220 -257c0 -147 -89 -257 -220 -257z" />
    <glyph glyph-name="q" unicode="q" horiz-adv-x="601" 
d="M528 -200h-107v288c-31 -69 -87 -100 -159 -100c-131 0 -219 110 -219 257c0 146 88 257 219 257c72 0 128 -30 161 -95v83h105v-690zM286 80c82 0 132 65 132 165c0 99 -50 165 -132 165c-81 0 -131 -66 -131 -165c0 -100 50 -165 131 -165z" />
    <glyph glyph-name="r" unicode="r" horiz-adv-x="386" 
d="M182 268v-268h-110v490h101v-100c26 75 79 112 145 112c22 0 40 -4 53 -11l-19 -105c-17 4 -34 6 -50 6c-68 0 -120 -25 -120 -124z" />
    <glyph glyph-name="s" unicode="s" horiz-adv-x="484" 
d="M248 69c65 0 96 26 96 65c0 97 -301 30 -301 218c0 84 68 150 193 150c112 0 178 -52 205 -135l-97 -21c-18 46 -53 77 -108 77c-57 0 -89 -24 -89 -63c0 -107 300 -33 300 -218c0 -89 -75 -154 -203 -154c-102 0 -186 40 -214 127l93 27c22 -48 65 -73 125 -73z" />
    <glyph glyph-name="t" unicode="t" horiz-adv-x="409" 
d="M361 400h-152v-237c0 -54 26 -79 64 -79c27 0 49 10 77 31l46 -77c-43 -35 -89 -50 -139 -50c-93 0 -158 57 -158 175v237h-84v90h89l23 115h82v-115h152v-90z" />
    <glyph glyph-name="u" unicode="u" horiz-adv-x="580" 
d="M405 0v90c-29 -69 -86 -102 -156 -102c-136 0 -186 91 -186 213v289h110v-284c0 -76 33 -121 108 -121c74 0 116 47 116 126v279h110v-490h-102z" />
    <glyph glyph-name="v" unicode="v" horiz-adv-x="518" 
d="M197 0l-184 490h114l135 -385l134 385h108l-184 -490h-123z" />
    <glyph glyph-name="w" unicode="w" horiz-adv-x="765" 
d="M147 0l-127 490h105l92 -400l108 400h111l113 -400l92 400h103l-127 -490h-136l-100 376l-101 -376h-133z" />
    <glyph glyph-name="x" unicode="x" horiz-adv-x="491" 
d="M357 0l-116 174l-113 -174h-115l171 246l-165 244h121l111 -166l107 166h114l-165 -235l171 -255h-121z" />
    <glyph glyph-name="y" unicode="y" horiz-adv-x="513" 
d="M135 -212c-39 0 -80 12 -116 39l48 80c22 -16 43 -24 68 -24c37 0 63 15 81 68l16 49h-35l-182 490h114l136 -393l131 393h104l-194 -558c-37 -106 -86 -144 -171 -144z" />
    <glyph glyph-name="z" unicode="z" horiz-adv-x="458" 
d="M426 0h-392v78l250 324h-246v88h378v-78l-251 -325h261v-87z" />
    <glyph glyph-name="ae" unicode="&#xe6;" horiz-adv-x="859" 
d="M603 -12c-80 0 -144 33 -185 96c-46 -68 -118 -96 -199 -96c-111 0 -180 58 -180 150c0 86 61 140 162 140h141c18 0 23 6 23 21v8c0 69 -38 105 -96 105c-56 0 -89 -31 -111 -83l-100 26c34 94 111 147 211 147c67 0 125 -25 161 -85c47 61 105 85 167 85
c147 0 240 -122 219 -286h-341c3 -86 49 -138 128 -138c54 0 88 23 119 72l91 -36c-40 -76 -107 -126 -210 -126zM597 415c-65 0 -113 -47 -121 -124h235c-4 79 -53 124 -114 124zM231 72c77 0 134 43 134 116v15h-143c-53 0 -74 -26 -74 -63c0 -43 33 -68 83 -68z" />
    <glyph glyph-name="oe" unicode="&#x153;" horiz-adv-x="906" 
d="M650 -12c-78 0 -141 25 -190 90c-50 -65 -110 -90 -180 -90c-142 0 -239 115 -239 257c0 141 97 257 239 257c70 0 132 -26 182 -93c50 67 111 93 181 93c149 0 241 -122 220 -286h-341c3 -86 48 -138 128 -138c54 0 88 23 119 71l90 -35c-39 -76 -107 -126 -209 -126z
M643 415c-64 0 -113 -47 -121 -124h236c-5 79 -53 124 -115 124zM280 82c72 0 127 61 127 163s-55 163 -127 163c-71 0 -126 -61 -126 -163s55 -163 126 -163z" />
    <glyph glyph-name="lslash" unicode="&#x142;" horiz-adv-x="279" 
d="M194 0h-110v292l-62 -21v94l62 21v294h110v-256l68 23v-93l-68 -24v-330z" />
    <glyph glyph-name="oslash" unicode="&#xf8;" horiz-adv-x="571" 
d="M285 -12c-52 0 -97 14 -135 40l-24 -28h-107l73 84c-33 44 -51 100 -51 161c0 143 99 257 244 257c52 0 98 -14 135 -39l24 27h108l-73 -84c32 -44 50 -100 50 -161c0 -143 -98 -257 -244 -257zM150 245c0 -30 5 -56 13 -79l194 224c-21 14 -45 21 -72 21
c-77 0 -135 -62 -135 -166zM285 79c78 0 135 62 135 166c0 30 -5 56 -13 78l-194 -222c21 -15 45 -22 72 -22z" />
    <glyph glyph-name="eth" unicode="&#xf0;" horiz-adv-x="581" 
d="M269 -12c-134 0 -235 86 -235 215c0 120 90 204 222 204c60 0 123 -17 166 -68c-5 81 -24 137 -52 173l-62 -74l-54 45l61 72c-16 7 -34 10 -52 10c-61 0 -98 -28 -132 -80l-83 53c43 77 116 124 215 124c44 0 83 -10 118 -29l50 59l53 -45l-48 -57
c58 -60 92 -159 92 -293c0 -213 -101 -309 -259 -309zM271 85c79 0 135 44 135 120c0 70 -56 111 -135 111c-76 0 -130 -41 -130 -113c0 -76 54 -118 130 -118z" />
    <glyph glyph-name="thorn" unicode="&#xfe;" horiz-adv-x="601" 
d="M314 80c81 0 131 65 131 165c0 99 -50 165 -131 165s-132 -66 -132 -165c0 -100 51 -165 132 -165zM338 -12c-68 0 -123 27 -156 86v-274h-110v880h110v-274c32 66 87 96 156 96c131 0 220 -113 220 -257c0 -145 -89 -257 -220 -257z" />
    <glyph glyph-name="germandbls" unicode="&#xdf;" horiz-adv-x="630" 
d="M179 0h-110v460c0 136 76 231 211 231c116 0 199 -64 199 -167c0 -82 -54 -113 -54 -144c0 -52 182 -91 182 -241c0 -93 -71 -151 -166 -151c-77 0 -142 27 -183 83l68 62c27 -38 66 -60 111 -60c38 0 66 24 66 61c0 106 -184 130 -184 229c0 53 51 83 51 148
c0 57 -40 86 -89 86c-65 0 -102 -47 -102 -137v-460z" />
    <glyph glyph-name="dotlessi" unicode="&#x131;" horiz-adv-x="255" 
d="M182 490v-490h-110v490h110z" />
    <glyph glyph-name="dotlessj" unicode="&#x237;" horiz-adv-x="255" 
d="M182 490v-532c0 -103 -52 -170 -156 -170c-37 0 -72 11 -101 25l30 82c18 -8 37 -15 53 -15c44 0 64 21 64 78v532h110z" />
    <glyph glyph-name="Aacute" unicode="&#xc1;" horiz-adv-x="618" 
d="M183 707l-18 72l255 82l22 -91zM402 247l-96 291l-96 -291h192zM484 0l-53 160h-250l-53 -160h-110l228 650h126l228 -650h-116z" />
    <glyph glyph-name="Acircumflex" unicode="&#xc2;" horiz-adv-x="618" 
d="M450 707l-148 56l-148 -56l-27 69l175 85l174 -85zM402 247l-96 291l-96 -291h192zM484 0l-53 160h-250l-53 -160h-110l228 650h126l228 -650h-116z" />
    <glyph glyph-name="Adieresis" unicode="&#xc4;" horiz-adv-x="618" 
d="M402 710c-36 0 -64 28 -64 61c0 34 28 61 64 61c35 0 64 -27 64 -61c0 -33 -29 -61 -64 -61zM202 710c-36 0 -64 28 -64 61c0 34 28 61 64 61c35 0 64 -27 64 -61c0 -33 -29 -61 -64 -61zM402 247l-96 291l-96 -291h192zM484 0l-53 160h-250l-53 -160h-110l228 650h126
l228 -650h-116z" />
    <glyph glyph-name="Agrave" unicode="&#xc0;" horiz-adv-x="618" 
d="M420 707l-259 63l22 91l255 -82zM402 247l-96 291l-96 -291h192zM484 0l-53 160h-250l-53 -160h-110l228 650h126l228 -650h-116z" />
    <glyph glyph-name="Aring" unicode="&#xc5;" horiz-adv-x="618" 
d="M302 710c-71 0 -128 55 -128 122c0 68 57 122 128 122c70 0 127 -54 127 -122c0 -67 -57 -122 -127 -122zM302 780c27 0 50 22 50 52s-23 53 -50 53s-50 -23 -50 -53s23 -52 50 -52zM402 247l-96 291l-96 -291h192zM484 0l-53 160h-250l-53 -160h-110l228 650h126
l228 -650h-116z" />
    <glyph glyph-name="Atilde" unicode="&#xc3;" horiz-adv-x="618" 
d="M134 716l4 30c10 72 42 109 95 109c59 0 101 -64 129 -64c14 0 22 8 27 36l5 29l76 -8l-4 -30c-10 -72 -40 -109 -95 -109c-58 0 -102 65 -128 65c-14 0 -21 -8 -27 -36l-6 -30zM402 247l-96 291l-96 -291h192zM484 0l-53 160h-250l-53 -160h-110l228 650h126l228 -650
h-116z" />
    <glyph glyph-name="Abreve" unicode="&#x102;" horiz-adv-x="618" 
d="M302 712c-89 0 -144 42 -159 111l-4 22l78 13l5 -17c11 -34 37 -50 80 -50s68 16 79 50l5 17l79 -13l-5 -22c-15 -69 -70 -111 -158 -111zM402 247l-96 291l-96 -291h192zM484 0l-53 160h-250l-53 -160h-110l228 650h126l228 -650h-116z" />
    <glyph glyph-name="Amacron" unicode="&#x100;" horiz-adv-x="618" 
d="M165 739v79h274v-79h-274zM402 247l-96 291l-96 -291h192zM484 0l-53 160h-250l-53 -160h-110l228 650h126l228 -650h-116z" />
    <glyph glyph-name="Aogonek" unicode="&#x104;" horiz-adv-x="618" 
d="M402 247l-96 291l-96 -291h192zM599 -191c-23 -14 -49 -21 -78 -21c-61 0 -110 35 -110 101c0 41 18 75 73 111v0l-53 160h-250l-53 -160h-110l228 650h126l228 -650h-46l-11 -8c-43 -32 -52 -54 -52 -78c0 -26 17 -41 45 -41c17 0 30 3 46 10z" />
    <glyph glyph-name="Ccedilla" unicode="&#xc7;" horiz-adv-x="659" 
d="M354 -212c-36 0 -68 8 -100 26l16 55c25 -11 47 -15 70 -15c28 0 44 10 44 29s-15 28 -46 28c-19 0 -36 -2 -57 -6l19 87c-163 23 -256 157 -256 333c0 191 124 337 306 337c147 0 227 -73 274 -190l-106 -35c-32 79 -82 124 -166 124c-105 0 -191 -89 -191 -236
s82 -237 192 -237c82 0 139 48 173 125l105 -37c-48 -107 -133 -185 -269 -188l-6 -29h9c60 0 99 -32 99 -78c0 -61 -49 -93 -110 -93z" />
    <glyph glyph-name="Cacute" unicode="&#x106;" horiz-adv-x="659" 
d="M213 707l-18 72l255 82l22 -91zM350 662c147 0 227 -73 274 -190l-106 -35c-32 79 -82 124 -166 124c-105 0 -191 -89 -191 -236s82 -237 192 -237c82 0 139 48 173 125l105 -37c-49 -109 -137 -188 -278 -188c-196 0 -309 143 -309 337c0 191 124 337 306 337z" />
    <glyph glyph-name="Ccaron" unicode="&#x10c;" horiz-adv-x="659" 
d="M355 708l-174 85l26 69l148 -56l148 56l27 -69zM350 662c147 0 227 -73 274 -190l-106 -35c-32 79 -82 124 -166 124c-105 0 -191 -89 -191 -236s82 -237 192 -237c82 0 139 48 173 125l105 -37c-49 -109 -137 -188 -278 -188c-196 0 -309 143 -309 337
c0 191 124 337 306 337z" />
    <glyph glyph-name="Ccircumflex" unicode="&#x108;" horiz-adv-x="659" 
d="M503 707l-148 56l-148 -56l-27 69l175 85l174 -85zM350 662c147 0 227 -73 274 -190l-106 -35c-32 79 -82 124 -166 124c-105 0 -191 -89 -191 -236s82 -237 192 -237c82 0 139 48 173 125l105 -37c-49 -109 -137 -188 -278 -188c-196 0 -309 143 -309 337
c0 191 124 337 306 337z" />
    <glyph glyph-name="Cdotaccent" unicode="&#x10a;" horiz-adv-x="659" 
d="M355 710c-37 0 -67 29 -67 64s30 63 67 63c36 0 66 -28 66 -63s-30 -64 -66 -64zM350 662c147 0 227 -73 274 -190l-106 -35c-32 79 -82 124 -166 124c-105 0 -191 -89 -191 -236s82 -237 192 -237c82 0 139 48 173 125l105 -37c-49 -109 -137 -188 -278 -188
c-196 0 -309 143 -309 337c0 191 124 337 306 337z" />
    <glyph glyph-name="Dcaron" unicode="&#x10e;" horiz-adv-x="675" 
d="M334 708l-174 85l26 69l148 -56l148 56l27 -69zM320 553h-122v-456h122c110 0 196 80 196 228c0 147 -86 228 -196 228zM85 0v650h235c186 0 312 -140 312 -323c0 -188 -126 -327 -312 -327h-235z" />
    <glyph glyph-name="Dcroat" unicode="&#x110;" horiz-adv-x="686" 
d="M324 287h-115v-190h122c110 0 196 80 196 228c0 147 -86 228 -196 228h-122v-172h115v-94zM96 0v287h-77v94h77v269h235c186 0 312 -140 312 -323c0 -188 -126 -327 -312 -327h-235z" />
    <glyph glyph-name="Eacute" unicode="&#xc9;" horiz-adv-x="535" 
d="M166 707l-18 72l255 82l22 -91zM85 0v650h412v-97h-300v-173h230v-93h-230v-190h300v-97h-412z" />
    <glyph glyph-name="Ecircumflex" unicode="&#xca;" horiz-adv-x="535" 
d="M438 707l-148 56l-148 -56l-27 69l175 85l174 -85zM85 0v650h412v-97h-300v-173h230v-93h-230v-190h300v-97h-412z" />
    <glyph glyph-name="Edieresis" unicode="&#xcb;" horiz-adv-x="535" 
d="M389 710c-36 0 -64 28 -64 61c0 34 28 61 64 61c35 0 64 -27 64 -61c0 -33 -29 -61 -64 -61zM189 710c-36 0 -64 28 -64 61c0 34 28 61 64 61c35 0 64 -27 64 -61c0 -33 -29 -61 -64 -61zM85 0v650h412v-97h-300v-173h230v-93h-230v-190h300v-97h-412z" />
    <glyph glyph-name="Egrave" unicode="&#xc8;" horiz-adv-x="535" 
d="M398 707l-259 63l22 91l255 -82zM85 0v650h412v-97h-300v-173h230v-93h-230v-190h300v-97h-412z" />
    <glyph glyph-name="Ebreve" unicode="&#x114;" horiz-adv-x="535" 
d="M285 712c-89 0 -144 42 -159 111l-4 22l78 13l5 -17c11 -34 37 -50 80 -50s68 16 79 50l5 17l79 -13l-5 -22c-15 -69 -70 -111 -158 -111zM85 0v650h412v-97h-300v-173h230v-93h-230v-190h300v-97h-412z" />
    <glyph glyph-name="Ecaron" unicode="&#x11a;" horiz-adv-x="535" 
d="M287 708l-174 85l26 69l148 -56l148 56l27 -69zM85 0v650h412v-97h-300v-173h230v-93h-230v-190h300v-97h-412z" />
    <glyph glyph-name="Edotaccent" unicode="&#x116;" horiz-adv-x="535" 
d="M290 710c-37 0 -67 29 -67 64s30 63 67 63c36 0 66 -28 66 -63s-30 -64 -66 -64zM85 0v650h412v-97h-300v-173h230v-93h-230v-190h300v-97h-412z" />
    <glyph glyph-name="Emacron" unicode="&#x112;" horiz-adv-x="535" 
d="M153 739v79h274v-79h-274zM85 0v650h412v-97h-300v-173h230v-93h-230v-190h300v-97h-412z" />
    <glyph glyph-name="Eogonek" unicode="&#x118;" horiz-adv-x="535" 
d="M477 -191c-23 -14 -49 -21 -78 -21c-61 0 -110 35 -110 101c0 41 18 75 73 111h-277v650h412v-97h-300v-173h230v-93h-230v-190h300v-97h-65l-11 -8c-43 -32 -52 -54 -52 -78c0 -26 17 -41 45 -41c17 0 30 3 46 10z" />
    <glyph glyph-name="Gbreve" unicode="&#x11e;" horiz-adv-x="698" 
d="M351 712c-89 0 -144 42 -159 111l-4 22l78 13l5 -17c11 -34 37 -50 80 -50s68 16 79 50l5 17l79 -13l-5 -22c-15 -69 -70 -111 -158 -111zM547 0v87c-47 -65 -121 -99 -200 -99c-171 0 -304 141 -304 337s134 337 307 337c144 0 249 -78 280 -214l-107 -26
c-16 82 -79 139 -168 139c-105 0 -194 -89 -194 -236s87 -237 196 -237c79 0 157 48 174 148h-147v85h254v-321h-91z" />
    <glyph glyph-name="Gcircumflex" unicode="&#x11c;" horiz-adv-x="698" 
d="M499 707l-148 56l-148 -56l-27 69l175 85l174 -85zM547 0v87c-47 -65 -121 -99 -200 -99c-171 0 -304 141 -304 337s134 337 307 337c144 0 249 -78 280 -214l-107 -26c-16 82 -79 139 -168 139c-105 0 -194 -89 -194 -236s87 -237 196 -237c79 0 157 48 174 148h-147v85
h254v-321h-91z" />
    <glyph glyph-name="Gcommaaccent" unicode="&#x122;" horiz-adv-x="698" 
d="M547 0v87c-47 -65 -121 -99 -200 -99c-171 0 -304 141 -304 337s134 337 307 337c144 0 249 -78 280 -214l-107 -26c-16 82 -79 139 -168 139c-105 0 -194 -89 -194 -236s87 -237 196 -237c79 0 157 48 174 148h-147v85h254v-321h-91zM350 -260l-39 30c13 16 25 38 29 63
c-33 7 -48 28 -48 53c0 31 26 56 60 56c35 0 63 -24 63 -73c0 -51 -31 -101 -65 -129z" />
    <glyph glyph-name="Gdotaccent" unicode="&#x120;" horiz-adv-x="698" 
d="M351 710c-37 0 -67 29 -67 64s30 63 67 63c36 0 66 -28 66 -63s-30 -64 -66 -64zM547 0v87c-47 -65 -121 -99 -200 -99c-171 0 -304 141 -304 337s134 337 307 337c144 0 249 -78 280 -214l-107 -26c-16 82 -79 139 -168 139c-105 0 -194 -89 -194 -236s87 -237 196 -237
c79 0 157 48 174 148h-147v85h254v-321h-91z" />
    <glyph glyph-name="Hbar" unicode="&#x126;" horiz-adv-x="693" 
d="M495 385v94h-297v-94h297zM495 0v289h-297v-289h-113v479h-68v79h68v92h113v-92h297v92h113v-92h68v-79h-68v-479h-113z" />
    <glyph glyph-name="Hcircumflex" unicode="&#x124;" horiz-adv-x="693" 
d="M494 707l-148 56l-148 -56l-27 69l175 85l174 -85zM495 0v289h-297v-289h-113v650h113v-265h297v265h113v-650h-113z" />
    <glyph glyph-name="Iacute" unicode="&#xcd;" horiz-adv-x="283" 
d="M23 707l-18 72l255 82l22 -91zM85 0v650h113v-650h-113z" />
    <glyph glyph-name="Icircumflex" unicode="&#xce;" horiz-adv-x="283" 
d="M290 707l-148 56l-148 -56l-27 69l175 85l174 -85zM85 0v650h113v-650h-113z" />
    <glyph glyph-name="Idieresis" unicode="&#xcf;" horiz-adv-x="283" 
d="M242 710c-36 0 -64 28 -64 61c0 34 28 61 64 61c35 0 64 -27 64 -61c0 -33 -29 -61 -64 -61zM42 710c-36 0 -64 28 -64 61c0 34 28 61 64 61c35 0 64 -27 64 -61c0 -33 -29 -61 -64 -61zM85 0v650h113v-650h-113z" />
    <glyph glyph-name="Igrave" unicode="&#xcc;" horiz-adv-x="283" 
d="M260 707l-259 63l22 91l255 -82zM85 0v650h113v-650h-113z" />
    <glyph glyph-name="Ibreve" unicode="&#x12c;" horiz-adv-x="283" 
d="M142 712c-89 0 -144 42 -159 111l-4 22l78 13l5 -17c11 -34 37 -50 80 -50s68 16 79 50l5 17l79 -13l-5 -22c-15 -69 -70 -111 -158 -111zM85 0v650h113v-650h-113z" />
    <glyph glyph-name="Idotaccent" unicode="&#x130;" horiz-adv-x="283" 
d="M142 710c-37 0 -67 29 -67 64s30 63 67 63c36 0 66 -28 66 -63s-30 -64 -66 -64zM85 0v650h113v-650h-113z" />
    <glyph glyph-name="Imacron" unicode="&#x12a;" horiz-adv-x="283" 
d="M5 739v79h274v-79h-274zM85 0v650h113v-650h-113z" />
    <glyph glyph-name="Iogonek" unicode="&#x12e;" horiz-adv-x="283" 
d="M198 -191c-23 -14 -49 -21 -78 -21c-61 0 -110 35 -110 101c0 41 19 75 75 112v649h113v-650h-45l-11 -8c-43 -32 -52 -54 -52 -78c0 -26 17 -41 45 -41c17 0 30 3 46 10z" />
    <glyph glyph-name="Itilde" unicode="&#x128;" horiz-adv-x="283" 
d="M-26 716l4 30c10 72 42 109 95 109c59 0 101 -64 129 -64c14 0 22 8 27 36l5 29l76 -8l-4 -30c-10 -72 -40 -109 -95 -109c-58 0 -102 65 -128 65c-14 0 -21 -8 -27 -36l-6 -30zM85 0v650h113v-650h-113z" />
    <glyph glyph-name="Jcircumflex" unicode="&#x134;" horiz-adv-x="433" 
d="M448 707l-148 56l-148 -56l-27 69l175 85l174 -85zM357 650v-458c0 -128 -72 -204 -198 -204c-55 0 -109 14 -155 50l60 82c30 -22 60 -32 92 -32c52 0 88 30 88 106v456h113z" />
    <glyph glyph-name="IJ" unicode="&#x132;" horiz-adv-x="716" 
d="M85 0v650h113v-650h-113zM640 650v-458c0 -128 -72 -204 -198 -204c-55 0 -109 14 -155 50l60 82c30 -22 60 -32 92 -32c52 0 88 30 88 106v456h113z" />
    <glyph glyph-name="Kcommaaccent" unicode="&#x136;" horiz-adv-x="623" 
d="M481 0l-182 299l-101 -123v-176h-113v650h113v-332l266 332h124l-209 -265l232 -385h-130zM318 -260l-39 30c13 16 25 38 29 63c-33 7 -48 28 -48 53c0 31 26 56 60 56c35 0 63 -24 63 -73c0 -51 -31 -101 -65 -129z" />
    <glyph glyph-name="Lacute" unicode="&#x139;" horiz-adv-x="513" 
d="M81 707l-18 72l255 82l22 -91zM85 0v650h113v-553h290v-97h-403z" />
    <glyph glyph-name="Lcaron" unicode="&#x13d;" horiz-adv-x="513" 
d="M422 579l-19 -162h-80v233h99v-71zM85 0v650h113v-553h290v-97h-403z" />
    <glyph glyph-name="Lcommaaccent" unicode="&#x13b;" horiz-adv-x="513" 
d="M85 0v650h113v-553h290v-97h-403zM281 -260l-39 30c13 16 25 38 29 63c-33 7 -48 28 -48 53c0 31 26 56 60 56c35 0 63 -24 63 -73c0 -51 -31 -101 -65 -129z" />
    <glyph glyph-name="Ldot" unicode="&#x13f;" horiz-adv-x="513" 
d="M393 265c-40 0 -72 31 -72 69s32 68 72 68c39 0 71 -30 71 -68s-32 -69 -71 -69zM85 0v650h113v-553h290v-97h-403z" />
    <glyph glyph-name="Ntilde" unicode="&#xd1;" horiz-adv-x="686" 
d="M175 716l4 30c10 72 42 109 95 109c59 0 101 -64 129 -64c14 0 22 8 27 36l5 29l76 -8l-4 -30c-10 -72 -40 -109 -95 -109c-58 0 -102 65 -128 65c-14 0 -21 -8 -27 -36l-6 -30zM478 0l-294 504v-504h-99v650h124l292 -502v502h100v-650h-123z" />
    <glyph glyph-name="Nacute" unicode="&#x143;" horiz-adv-x="686" 
d="M224 707l-18 72l255 82l22 -91zM478 0l-294 504v-504h-99v650h124l292 -502v502h100v-650h-123z" />
    <glyph glyph-name="Ncaron" unicode="&#x147;" horiz-adv-x="686" 
d="M343 708l-174 85l26 69l148 -56l148 56l27 -69zM478 0l-294 504v-504h-99v650h124l292 -502v502h100v-650h-123z" />
    <glyph glyph-name="Ncommaaccent" unicode="&#x145;" horiz-adv-x="686" 
d="M478 0l-294 504v-504h-99v650h124l292 -502v502h100v-650h-123zM342 -260l-39 30c13 16 25 38 29 63c-33 7 -48 28 -48 53c0 31 26 56 60 56c35 0 63 -24 63 -73c0 -51 -31 -101 -65 -129z" />
    <glyph glyph-name="Oacute" unicode="&#xd3;" horiz-adv-x="725" 
d="M243 707l-18 72l255 82l22 -91zM362 -12c-188 0 -320 151 -320 337s132 337 320 337c189 0 320 -151 320 -337s-131 -337 -320 -337zM362 92c110 0 203 88 203 233c0 144 -93 232 -203 232s-202 -88 -202 -232c0 -145 92 -233 202 -233z" />
    <glyph glyph-name="Ocircumflex" unicode="&#xd4;" horiz-adv-x="725" 
d="M510 707l-148 56l-148 -56l-27 69l175 85l174 -85zM362 -12c-188 0 -320 151 -320 337s132 337 320 337c189 0 320 -151 320 -337s-131 -337 -320 -337zM362 92c110 0 203 88 203 233c0 144 -93 232 -203 232s-202 -88 -202 -232c0 -145 92 -233 202 -233z" />
    <glyph glyph-name="Odieresis" unicode="&#xd6;" horiz-adv-x="725" 
d="M462 710c-36 0 -64 28 -64 61c0 34 28 61 64 61c35 0 64 -27 64 -61c0 -33 -29 -61 -64 -61zM262 710c-36 0 -64 28 -64 61c0 34 28 61 64 61c35 0 64 -27 64 -61c0 -33 -29 -61 -64 -61zM362 -12c-188 0 -320 151 -320 337s132 337 320 337c189 0 320 -151 320 -337
s-131 -337 -320 -337zM362 92c110 0 203 88 203 233c0 144 -93 232 -203 232s-202 -88 -202 -232c0 -145 92 -233 202 -233z" />
    <glyph glyph-name="Ograve" unicode="&#xd2;" horiz-adv-x="725" 
d="M480 707l-259 63l22 91l255 -82zM362 -12c-188 0 -320 151 -320 337s132 337 320 337c189 0 320 -151 320 -337s-131 -337 -320 -337zM362 92c110 0 203 88 203 233c0 144 -93 232 -203 232s-202 -88 -202 -232c0 -145 92 -233 202 -233z" />
    <glyph glyph-name="Otilde" unicode="&#xd5;" horiz-adv-x="725" 
d="M194 716l4 30c10 72 42 109 95 109c59 0 101 -64 129 -64c14 0 22 8 27 36l5 29l76 -8l-4 -30c-10 -72 -40 -109 -95 -109c-58 0 -102 65 -128 65c-14 0 -21 -8 -27 -36l-6 -30zM362 -12c-188 0 -320 151 -320 337s132 337 320 337c189 0 320 -151 320 -337
s-131 -337 -320 -337zM362 92c110 0 203 88 203 233c0 144 -93 232 -203 232s-202 -88 -202 -232c0 -145 92 -233 202 -233z" />
    <glyph glyph-name="Obreve" unicode="&#x14e;" horiz-adv-x="725" 
d="M362 712c-89 0 -144 42 -159 111l-4 22l78 13l5 -17c11 -34 37 -50 80 -50s68 16 79 50l5 17l79 -13l-5 -22c-15 -69 -70 -111 -158 -111zM362 -12c-188 0 -320 151 -320 337s132 337 320 337c189 0 320 -151 320 -337s-131 -337 -320 -337zM362 92c110 0 203 88 203 233
c0 144 -93 232 -203 232s-202 -88 -202 -232c0 -145 92 -233 202 -233z" />
    <glyph glyph-name="Ohungarumlaut" unicode="&#x150;" horiz-adv-x="725" 
d="M397 707l-41 55l142 116l55 -70zM217 707l-41 55l142 116l55 -70zM362 -12c-188 0 -320 151 -320 337s132 337 320 337c189 0 320 -151 320 -337s-131 -337 -320 -337zM362 92c110 0 203 88 203 233c0 144 -93 232 -203 232s-202 -88 -202 -232c0 -145 92 -233 202 -233z
" />
    <glyph glyph-name="Omacron" unicode="&#x14c;" horiz-adv-x="725" 
d="M225 739v79h274v-79h-274zM362 -12c-188 0 -320 151 -320 337s132 337 320 337c189 0 320 -151 320 -337s-131 -337 -320 -337zM362 92c110 0 203 88 203 233c0 144 -93 232 -203 232s-202 -88 -202 -232c0 -145 92 -233 202 -233z" />
    <glyph glyph-name="Racute" unicode="&#x154;" horiz-adv-x="613" 
d="M187 707l-18 72l255 82l22 -91zM332 553h-134v-206h134c57 0 110 28 110 105c0 74 -53 101 -110 101zM456 0l-144 252h-114v-252h-113v650h247c145 0 224 -77 224 -192c0 -90 -46 -156 -133 -183l162 -275h-129z" />
    <glyph glyph-name="Rcaron" unicode="&#x158;" horiz-adv-x="613" 
d="M306 708l-174 85l26 69l148 -56l148 56l27 -69zM332 553h-134v-206h134c57 0 110 28 110 105c0 74 -53 101 -110 101zM456 0l-144 252h-114v-252h-113v650h247c145 0 224 -77 224 -192c0 -90 -46 -156 -133 -183l162 -275h-129z" />
    <glyph glyph-name="Rcommaaccent" unicode="&#x156;" horiz-adv-x="613" 
d="M332 553h-134v-206h134c57 0 110 28 110 105c0 74 -53 101 -110 101zM456 0l-144 252h-114v-252h-113v650h247c145 0 224 -77 224 -192c0 -90 -46 -156 -133 -183l162 -275h-129zM305 -260l-39 30c13 16 25 38 29 63c-33 7 -48 28 -48 53c0 31 26 56 60 56
c35 0 63 -24 63 -73c0 -51 -31 -101 -65 -129z" />
    <glyph glyph-name="Scaron" unicode="&#x160;" horiz-adv-x="586" 
d="M295 708l-174 85l26 69l148 -56l148 56l27 -69zM302 -11c-129 0 -226 57 -268 147l102 41c35 -62 95 -93 166 -93c80 0 124 35 124 89c0 139 -371 58 -371 299c0 104 84 190 229 190c124 0 209 -63 248 -155l-105 -37c-30 61 -77 96 -143 96c-74 0 -114 -35 -114 -87
c0 -147 371 -61 371 -302c0 -108 -88 -188 -239 -188z" />
    <glyph glyph-name="Sacute" unicode="&#x15a;" horiz-adv-x="586" 
d="M176 707l-18 72l255 82l22 -91zM302 -11c-129 0 -226 57 -268 147l102 41c35 -62 95 -93 166 -93c80 0 124 35 124 89c0 139 -371 58 -371 299c0 104 84 190 229 190c124 0 209 -63 248 -155l-105 -37c-30 61 -77 96 -143 96c-74 0 -114 -35 -114 -87
c0 -147 371 -61 371 -302c0 -108 -88 -188 -239 -188z" />
    <glyph glyph-name="Scedilla" unicode="&#x15e;" horiz-adv-x="586" 
d="M313 -212c-36 0 -68 8 -100 26l16 55c25 -11 47 -15 70 -15c27 0 44 10 44 29s-15 28 -47 28c-18 0 -35 -2 -56 -6l18 86c-107 12 -187 66 -224 145l102 41c35 -62 95 -93 166 -93c80 0 124 35 124 89c0 140 -371 58 -371 299c0 104 84 190 229 190
c124 0 209 -63 248 -155l-105 -37c-30 61 -77 96 -143 96c-74 0 -114 -35 -114 -87c0 -147 371 -61 371 -302c0 -103 -81 -181 -220 -188l-6 -30h9c60 0 98 -32 98 -78c0 -61 -48 -93 -109 -93z" />
    <glyph glyph-name="Scircumflex" unicode="&#x15c;" horiz-adv-x="586" 
d="M443 707l-148 56l-148 -56l-27 69l175 85l174 -85zM302 -11c-129 0 -226 57 -268 147l102 41c35 -62 95 -93 166 -93c80 0 124 35 124 89c0 139 -371 58 -371 299c0 104 84 190 229 190c124 0 209 -63 248 -155l-105 -37c-30 61 -77 96 -143 96c-74 0 -114 -35 -114 -87
c0 -147 371 -61 371 -302c0 -108 -88 -188 -239 -188z" />
    <glyph glyph-name="uni0218" unicode="&#x218;" horiz-adv-x="586" 
d="M302 -11c-129 0 -226 57 -268 147l102 41c35 -62 95 -93 166 -93c80 0 124 35 124 89c0 139 -371 58 -371 299c0 104 84 190 229 190c124 0 209 -63 248 -155l-105 -37c-30 61 -77 96 -143 96c-74 0 -114 -35 -114 -87c0 -147 371 -61 371 -302
c0 -108 -88 -188 -239 -188zM294 -260l-39 30c13 16 25 38 29 63c-33 7 -48 28 -48 53c0 31 26 56 60 56c35 0 63 -24 63 -73c0 -51 -31 -101 -65 -129z" />
    <glyph glyph-name="Tbar" unicode="&#x166;" horiz-adv-x="536" 
d="M445 267h-121v-267h-113v267h-120v84h120v204h-190v95h494v-95h-191v-204h121v-84z" />
    <glyph glyph-name="Tcaron" unicode="&#x164;" horiz-adv-x="536" 
d="M265 708l-174 85l26 69l148 -56l148 56l27 -69zM515 555h-191v-555h-113v555h-190v95h494v-95z" />
    <glyph glyph-name="uni0162" unicode="&#x162;" horiz-adv-x="536" 
d="M515 555h-191v-555h-113v555h-190v95h494v-95zM264 -260l-39 30c13 16 25 38 29 63c-33 7 -48 28 -48 53c0 31 26 56 60 56c35 0 63 -24 63 -73c0 -51 -31 -101 -65 -129z" />
    <glyph glyph-name="uni021A" unicode="&#x21a;" horiz-adv-x="536" 
d="M515 555h-191v-555h-113v555h-190v95h494v-95zM264 -260l-39 30c13 16 25 38 29 63c-33 7 -48 28 -48 53c0 31 26 56 60 56c35 0 63 -24 63 -73c0 -51 -31 -101 -65 -129z" />
    <glyph glyph-name="Uacute" unicode="&#xda;" horiz-adv-x="647" 
d="M204 707l-18 72l255 82l22 -91zM73 241v409h113v-409c0 -111 60 -155 138 -155c76 0 139 44 139 155v409h110v-409c0 -150 -84 -253 -250 -253c-163 0 -250 103 -250 253z" />
    <glyph glyph-name="Ucircumflex" unicode="&#xdb;" horiz-adv-x="647" 
d="M471 707l-148 56l-148 -56l-27 69l175 85l174 -85zM73 241v409h113v-409c0 -111 60 -155 138 -155c76 0 139 44 139 155v409h110v-409c0 -150 -84 -253 -250 -253c-163 0 -250 103 -250 253z" />
    <glyph glyph-name="Udieresis" unicode="&#xdc;" horiz-adv-x="647" 
d="M423 710c-36 0 -64 28 -64 61c0 34 28 61 64 61c35 0 64 -27 64 -61c0 -33 -29 -61 -64 -61zM223 710c-36 0 -64 28 -64 61c0 34 28 61 64 61c35 0 64 -27 64 -61c0 -33 -29 -61 -64 -61zM73 241v409h113v-409c0 -111 60 -155 138 -155c76 0 139 44 139 155v409h110v-409
c0 -150 -84 -253 -250 -253c-163 0 -250 103 -250 253z" />
    <glyph glyph-name="Ugrave" unicode="&#xd9;" horiz-adv-x="647" 
d="M441 707l-259 63l22 91l255 -82zM73 241v409h113v-409c0 -111 60 -155 138 -155c76 0 139 44 139 155v409h110v-409c0 -150 -84 -253 -250 -253c-163 0 -250 103 -250 253z" />
    <glyph glyph-name="Ubreve" unicode="&#x16c;" horiz-adv-x="647" 
d="M323 712c-89 0 -144 42 -159 111l-4 22l78 13l5 -17c11 -34 37 -50 80 -50s68 16 79 50l5 17l79 -13l-5 -22c-15 -69 -70 -111 -158 -111zM73 241v409h113v-409c0 -111 60 -155 138 -155c76 0 139 44 139 155v409h110v-409c0 -150 -84 -253 -250 -253
c-163 0 -250 103 -250 253z" />
    <glyph glyph-name="Uhungarumlaut" unicode="&#x170;" horiz-adv-x="647" 
d="M358 707l-41 55l142 116l55 -70zM178 707l-41 55l142 116l55 -70zM73 241v409h113v-409c0 -111 60 -155 138 -155c76 0 139 44 139 155v409h110v-409c0 -150 -84 -253 -250 -253c-163 0 -250 103 -250 253z" />
    <glyph glyph-name="Umacron" unicode="&#x16a;" horiz-adv-x="647" 
d="M186 739v79h274v-79h-274zM73 241v409h113v-409c0 -111 60 -155 138 -155c76 0 139 44 139 155v409h110v-409c0 -150 -84 -253 -250 -253c-163 0 -250 103 -250 253z" />
    <glyph glyph-name="Uogonek" unicode="&#x172;" horiz-adv-x="647" 
d="M348 -212c-61 0 -110 35 -110 101c0 37 15 68 58 100c-145 11 -223 111 -223 252v409h113v-409c0 -111 61 -155 138 -155s139 44 139 155v409h110v-409c0 -136 -68 -233 -205 -250c-41 -32 -50 -53 -50 -77c0 -26 17 -41 45 -41c17 0 30 3 46 10l17 -74
c-23 -14 -49 -21 -78 -21z" />
    <glyph glyph-name="Uring" unicode="&#x16e;" horiz-adv-x="647" 
d="M323 710c-71 0 -128 55 -128 122c0 68 57 122 128 122c70 0 127 -54 127 -122c0 -67 -57 -122 -127 -122zM323 780c27 0 50 22 50 52s-23 53 -50 53s-50 -23 -50 -53s23 -52 50 -52zM73 241v409h113v-409c0 -111 60 -155 138 -155c76 0 139 44 139 155v409h110v-409
c0 -150 -84 -253 -250 -253c-163 0 -250 103 -250 253z" />
    <glyph glyph-name="Utilde" unicode="&#x168;" horiz-adv-x="647" 
d="M155 716l4 30c10 72 42 109 95 109c59 0 101 -64 129 -64c14 0 22 8 27 36l5 29l76 -8l-4 -30c-10 -72 -40 -109 -95 -109c-58 0 -102 65 -128 65c-14 0 -21 -8 -27 -36l-6 -30zM73 241v409h113v-409c0 -111 60 -155 138 -155c76 0 139 44 139 155v409h110v-409
c0 -150 -84 -253 -250 -253c-163 0 -250 103 -250 253z" />
    <glyph glyph-name="Wacute" unicode="&#x1e82;" horiz-adv-x="903" 
d="M333 707l-18 72l255 82l22 -91zM182 0l-159 650h117l122 -542l135 542h119l134 -540l121 540h109l-159 -650h-141l-126 494l-124 -494h-148z" />
    <glyph glyph-name="Wcircumflex" unicode="&#x174;" horiz-adv-x="903" 
d="M600 707l-148 56l-148 -56l-27 69l175 85l174 -85zM182 0l-159 650h117l122 -542l135 542h119l134 -540l121 540h109l-159 -650h-141l-126 494l-124 -494h-148z" />
    <glyph glyph-name="Wdieresis" unicode="&#x1e84;" horiz-adv-x="903" 
d="M552 710c-36 0 -64 28 -64 61c0 34 28 61 64 61c35 0 64 -27 64 -61c0 -33 -29 -61 -64 -61zM352 710c-36 0 -64 28 -64 61c0 34 28 61 64 61c35 0 64 -27 64 -61c0 -33 -29 -61 -64 -61zM182 0l-159 650h117l122 -542l135 542h119l134 -540l121 540h109l-159 -650h-141
l-126 494l-124 -494h-148z" />
    <glyph glyph-name="Wgrave" unicode="&#x1e80;" horiz-adv-x="903" 
d="M570 707l-259 63l22 91l255 -82zM182 0l-159 650h117l122 -542l135 542h119l134 -540l121 540h109l-159 -650h-141l-126 494l-124 -494h-148z" />
    <glyph glyph-name="Yacute" unicode="&#xdd;" horiz-adv-x="565" 
d="M163 707l-18 72l255 82l22 -91zM340 0h-113v250l-222 400h123l160 -296l156 296h116l-220 -398v-252z" />
    <glyph glyph-name="Ydieresis" unicode="&#x178;" horiz-adv-x="565" 
d="M382 710c-36 0 -64 28 -64 61c0 34 28 61 64 61c35 0 64 -27 64 -61c0 -33 -29 -61 -64 -61zM182 710c-36 0 -64 28 -64 61c0 34 28 61 64 61c35 0 64 -27 64 -61c0 -33 -29 -61 -64 -61zM340 0h-113v250l-222 400h123l160 -296l156 296h116l-220 -398v-252z" />
    <glyph glyph-name="Ycircumflex" unicode="&#x176;" horiz-adv-x="565" 
d="M430 707l-148 56l-148 -56l-27 69l175 85l174 -85zM340 0h-113v250l-222 400h123l160 -296l156 296h116l-220 -398v-252z" />
    <glyph glyph-name="Ygrave" unicode="&#x1ef2;" horiz-adv-x="565" 
d="M400 707l-259 63l22 91l255 -82zM340 0h-113v250l-222 400h123l160 -296l156 296h116l-220 -398v-252z" />
    <glyph glyph-name="Zcaron" unicode="&#x17d;" horiz-adv-x="533" 
d="M266 708l-174 85l26 69l148 -56l148 56l27 -69zM27 0v86l339 467h-330v97h463v-87l-335 -466h348v-97h-485z" />
    <glyph glyph-name="Zacute" unicode="&#x179;" horiz-adv-x="533" 
d="M147 707l-18 72l255 82l22 -91zM27 0v86l339 467h-330v97h463v-87l-335 -466h348v-97h-485z" />
    <glyph glyph-name="Zdotaccent" unicode="&#x17b;" horiz-adv-x="533" 
d="M266 710c-37 0 -67 29 -67 64s30 63 67 63c36 0 66 -28 66 -63s-30 -64 -66 -64zM27 0v86l339 467h-330v97h463v-87l-335 -466h348v-97h-485z" />
    <glyph glyph-name="aacute" unicode="&#xe1;" horiz-adv-x="539" 
d="M150 547l-18 72l255 82l22 -91zM231 72c72 0 135 44 135 116v15h-144c-54 0 -75 -25 -75 -62c0 -44 33 -69 84 -69zM373 0v77c-36 -62 -99 -89 -164 -89c-99 0 -170 59 -170 150c0 84 61 140 162 140h142c18 0 23 6 23 21v8c0 70 -39 106 -96 106s-91 -31 -112 -83
l-100 26c34 93 111 146 212 146c131 0 205 -77 205 -207v-295h-102z" />
    <glyph glyph-name="acircumflex" unicode="&#xe2;" horiz-adv-x="539" 
d="M417 547l-148 56l-148 -56l-27 69l175 85l174 -85zM231 72c72 0 135 44 135 116v15h-144c-54 0 -75 -25 -75 -62c0 -44 33 -69 84 -69zM373 0v77c-36 -62 -99 -89 -164 -89c-99 0 -170 59 -170 150c0 84 61 140 162 140h142c18 0 23 6 23 21v8c0 70 -39 106 -96 106
s-91 -31 -112 -83l-100 26c34 93 111 146 212 146c131 0 205 -77 205 -207v-295h-102z" />
    <glyph glyph-name="adieresis" unicode="&#xe4;" horiz-adv-x="539" 
d="M369 550c-36 0 -64 28 -64 61c0 34 28 61 64 61c35 0 64 -27 64 -61c0 -33 -29 -61 -64 -61zM169 550c-36 0 -64 28 -64 61c0 34 28 61 64 61c35 0 64 -27 64 -61c0 -33 -29 -61 -64 -61zM231 72c72 0 135 44 135 116v15h-144c-54 0 -75 -25 -75 -62c0 -44 33 -69 84 -69
zM373 0v77c-36 -62 -99 -89 -164 -89c-99 0 -170 59 -170 150c0 84 61 140 162 140h142c18 0 23 6 23 21v8c0 70 -39 106 -96 106s-91 -31 -112 -83l-100 26c34 93 111 146 212 146c131 0 205 -77 205 -207v-295h-102z" />
    <glyph glyph-name="agrave" unicode="&#xe0;" horiz-adv-x="539" 
d="M387 547l-259 63l22 91l255 -82zM231 72c72 0 135 44 135 116v15h-144c-54 0 -75 -25 -75 -62c0 -44 33 -69 84 -69zM373 0v77c-36 -62 -99 -89 -164 -89c-99 0 -170 59 -170 150c0 84 61 140 162 140h142c18 0 23 6 23 21v8c0 70 -39 106 -96 106s-91 -31 -112 -83
l-100 26c34 93 111 146 212 146c131 0 205 -77 205 -207v-295h-102z" />
    <glyph glyph-name="aring" unicode="&#xe5;" horiz-adv-x="539" 
d="M269 550c-71 0 -128 55 -128 122c0 68 57 122 128 122c70 0 127 -54 127 -122c0 -67 -57 -122 -127 -122zM269 620c27 0 50 22 50 52s-23 53 -50 53s-50 -23 -50 -53s23 -52 50 -52zM231 72c72 0 135 44 135 116v15h-144c-54 0 -75 -25 -75 -62c0 -44 33 -69 84 -69z
M373 0v77c-36 -62 -99 -89 -164 -89c-99 0 -170 59 -170 150c0 84 61 140 162 140h142c18 0 23 6 23 21v8c0 70 -39 106 -96 106s-91 -31 -112 -83l-100 26c34 93 111 146 212 146c131 0 205 -77 205 -207v-295h-102z" />
    <glyph glyph-name="atilde" unicode="&#xe3;" horiz-adv-x="539" 
d="M101 556l4 30c10 72 42 109 95 109c59 0 101 -64 129 -64c14 0 22 8 27 36l5 29l76 -8l-4 -30c-10 -72 -40 -109 -95 -109c-58 0 -102 65 -128 65c-14 0 -21 -8 -27 -36l-6 -30zM231 72c72 0 135 44 135 116v15h-144c-54 0 -75 -25 -75 -62c0 -44 33 -69 84 -69zM373 0
v77c-36 -62 -99 -89 -164 -89c-99 0 -170 59 -170 150c0 84 61 140 162 140h142c18 0 23 6 23 21v8c0 70 -39 106 -96 106s-91 -31 -112 -83l-100 26c34 93 111 146 212 146c131 0 205 -77 205 -207v-295h-102z" />
    <glyph glyph-name="abreve" unicode="&#x103;" horiz-adv-x="539" 
d="M269 552c-89 0 -144 42 -159 111l-4 22l78 13l5 -17c11 -34 37 -50 80 -50s68 16 79 50l5 17l79 -13l-5 -22c-15 -69 -70 -111 -158 -111zM231 72c72 0 135 44 135 116v15h-144c-54 0 -75 -25 -75 -62c0 -44 33 -69 84 -69zM373 0v77c-36 -62 -99 -89 -164 -89
c-99 0 -170 59 -170 150c0 84 61 140 162 140h142c18 0 23 6 23 21v8c0 70 -39 106 -96 106s-91 -31 -112 -83l-100 26c34 93 111 146 212 146c131 0 205 -77 205 -207v-295h-102z" />
    <glyph glyph-name="amacron" unicode="&#x101;" horiz-adv-x="539" 
d="M132 579v79h274v-79h-274zM231 72c72 0 135 44 135 116v15h-144c-54 0 -75 -25 -75 -62c0 -44 33 -69 84 -69zM373 0v77c-36 -62 -99 -89 -164 -89c-99 0 -170 59 -170 150c0 84 61 140 162 140h142c18 0 23 6 23 21v8c0 70 -39 106 -96 106s-91 -31 -112 -83l-100 26
c34 93 111 146 212 146c131 0 205 -77 205 -207v-295h-102z" />
    <glyph glyph-name="aogonek" unicode="&#x105;" horiz-adv-x="539" 
d="M231 72c72 0 135 44 135 116v15h-144c-54 0 -75 -25 -75 -62c0 -44 33 -69 84 -69zM475 -191c-23 -14 -49 -21 -78 -21c-61 0 -110 35 -110 101c0 44 21 79 86 119v69c-36 -62 -99 -89 -164 -89c-99 0 -170 59 -170 150c0 84 61 140 162 140h142c18 0 23 6 23 21v8
c0 70 -39 106 -96 106s-91 -31 -112 -83l-100 26c34 93 111 146 212 146c131 0 205 -77 205 -207v-295h-45l-11 -8c-43 -32 -52 -54 -52 -78c0 -26 17 -41 45 -41c17 0 30 3 46 10z" />
    <glyph glyph-name="ccedilla" unicode="&#xe7;" horiz-adv-x="522" 
d="M288 -212c-36 0 -68 8 -100 26l16 55c25 -11 47 -15 70 -15c27 0 44 10 44 29s-15 28 -47 28c-18 0 -35 -2 -56 -6l18 87c-118 22 -191 123 -191 253c0 151 104 257 244 257c101 0 170 -51 208 -129l-87 -45c-31 55 -65 82 -120 82c-76 0 -132 -60 -132 -165
c0 -104 51 -165 133 -165c56 0 91 24 121 73l90 -36c-35 -72 -103 -124 -203 -129l-6 -29h9c59 0 98 -32 98 -78c0 -61 -48 -93 -109 -93z" />
    <glyph glyph-name="cacute" unicode="&#x107;" horiz-adv-x="522" 
d="M137 547l-18 72l255 82l22 -91zM287 410c-76 0 -132 -60 -132 -165c0 -104 51 -165 133 -165c56 0 91 24 121 73l90 -36c-37 -75 -109 -129 -216 -129c-148 0 -241 110 -241 257c0 151 104 257 244 257c101 0 170 -51 208 -129l-87 -45c-31 55 -65 82 -120 82z" />
    <glyph glyph-name="ccaron" unicode="&#x10d;" horiz-adv-x="522" 
d="M273 548l-174 85l26 69l148 -56l148 56l27 -69zM287 410c-76 0 -132 -60 -132 -165c0 -104 51 -165 133 -165c56 0 91 24 121 73l90 -36c-37 -75 -109 -129 -216 -129c-148 0 -241 110 -241 257c0 151 104 257 244 257c101 0 170 -51 208 -129l-87 -45
c-31 55 -65 82 -120 82z" />
    <glyph glyph-name="ccircumflex" unicode="&#x109;" horiz-adv-x="522" 
d="M421 547l-148 56l-148 -56l-27 69l175 85l174 -85zM287 410c-76 0 -132 -60 -132 -165c0 -104 51 -165 133 -165c56 0 91 24 121 73l90 -36c-37 -75 -109 -129 -216 -129c-148 0 -241 110 -241 257c0 151 104 257 244 257c101 0 170 -51 208 -129l-87 -45
c-31 55 -65 82 -120 82z" />
    <glyph glyph-name="cdotaccent" unicode="&#x10b;" horiz-adv-x="522" 
d="M273 550c-37 0 -67 29 -67 64s30 63 67 63c36 0 66 -28 66 -63s-30 -64 -66 -64zM287 410c-76 0 -132 -60 -132 -165c0 -104 51 -165 133 -165c56 0 91 24 121 73l90 -36c-37 -75 -109 -129 -216 -129c-148 0 -241 110 -241 257c0 151 104 257 244 257
c101 0 170 -51 208 -129l-87 -45c-31 55 -65 82 -120 82z" />
    <glyph glyph-name="dcaron" unicode="&#x10f;" horiz-adv-x="720" 
d="M712 609l-19 -162h-80v233h99v-71zM286 80c82 0 132 65 132 165c0 99 -50 165 -132 165c-81 0 -131 -66 -131 -165c0 -100 50 -165 131 -165zM423 0v92c-31 -71 -88 -104 -161 -104c-131 0 -219 110 -219 257c0 146 88 257 219 257c70 0 126 -29 159 -91v269h107v-680
h-105z" />
    <glyph glyph-name="dcroat" unicode="&#x111;" horiz-adv-x="601" 
d="M286 80c82 0 132 65 132 165c0 99 -50 165 -132 165c-81 0 -131 -66 -131 -165c0 -100 50 -165 131 -165zM423 0v92c-31 -71 -88 -104 -161 -104c-131 0 -219 110 -219 257c0 146 88 257 219 257c70 0 126 -29 159 -91v138h-121v70h121v61h107v-61h61v-70h-61v-549h-105z
" />
    <glyph glyph-name="eacute" unicode="&#xe9;" horiz-adv-x="551" 
d="M157 547l-18 72l255 82l22 -91zM283 415c-67 0 -118 -47 -126 -124h246c-6 80 -56 124 -120 124zM504 114c-40 -76 -110 -126 -214 -126c-161 0 -248 110 -248 257s99 257 241 257c150 0 247 -121 225 -286h-352c5 -86 52 -137 134 -137c56 0 93 22 124 71z" />
    <glyph glyph-name="ecircumflex" unicode="&#xea;" horiz-adv-x="551" 
d="M424 547l-148 56l-148 -56l-27 69l175 85l174 -85zM283 415c-67 0 -118 -47 -126 -124h246c-6 80 -56 124 -120 124zM504 114c-40 -76 -110 -126 -214 -126c-161 0 -248 110 -248 257s99 257 241 257c150 0 247 -121 225 -286h-352c5 -86 52 -137 134 -137
c56 0 93 22 124 71z" />
    <glyph glyph-name="edieresis" unicode="&#xeb;" horiz-adv-x="551" 
d="M376 550c-36 0 -64 28 -64 61c0 34 28 61 64 61c35 0 64 -27 64 -61c0 -33 -29 -61 -64 -61zM176 550c-36 0 -64 28 -64 61c0 34 28 61 64 61c35 0 64 -27 64 -61c0 -33 -29 -61 -64 -61zM283 415c-67 0 -118 -47 -126 -124h246c-6 80 -56 124 -120 124zM504 114
c-40 -76 -110 -126 -214 -126c-161 0 -248 110 -248 257s99 257 241 257c150 0 247 -121 225 -286h-352c5 -86 52 -137 134 -137c56 0 93 22 124 71z" />
    <glyph glyph-name="egrave" unicode="&#xe8;" horiz-adv-x="551" 
d="M394 547l-259 63l22 91l255 -82zM283 415c-67 0 -118 -47 -126 -124h246c-6 80 -56 124 -120 124zM504 114c-40 -76 -110 -126 -214 -126c-161 0 -248 110 -248 257s99 257 241 257c150 0 247 -121 225 -286h-352c5 -86 52 -137 134 -137c56 0 93 22 124 71z" />
    <glyph glyph-name="ebreve" unicode="&#x115;" horiz-adv-x="551" 
d="M276 552c-89 0 -144 42 -159 111l-4 22l78 13l5 -17c11 -34 37 -50 80 -50s68 16 79 50l5 17l79 -13l-5 -22c-15 -69 -70 -111 -158 -111zM283 415c-67 0 -118 -47 -126 -124h246c-6 80 -56 124 -120 124zM504 114c-40 -76 -110 -126 -214 -126c-161 0 -248 110 -248 257
s99 257 241 257c150 0 247 -121 225 -286h-352c5 -86 52 -137 134 -137c56 0 93 22 124 71z" />
    <glyph glyph-name="ecaron" unicode="&#x11b;" horiz-adv-x="551" 
d="M276 548l-174 85l26 69l148 -56l148 56l27 -69zM283 415c-67 0 -118 -47 -126 -124h246c-6 80 -56 124 -120 124zM504 114c-40 -76 -110 -126 -214 -126c-161 0 -248 110 -248 257s99 257 241 257c150 0 247 -121 225 -286h-352c5 -86 52 -137 134 -137
c56 0 93 22 124 71z" />
    <glyph glyph-name="edotaccent" unicode="&#x117;" horiz-adv-x="551" 
d="M276 550c-37 0 -67 29 -67 64s30 63 67 63c36 0 66 -28 66 -63s-30 -64 -66 -64zM283 415c-67 0 -118 -47 -126 -124h246c-6 80 -56 124 -120 124zM504 114c-40 -76 -110 -126 -214 -126c-161 0 -248 110 -248 257s99 257 241 257c150 0 247 -121 225 -286h-352
c5 -86 52 -137 134 -137c56 0 93 22 124 71z" />
    <glyph glyph-name="emacron" unicode="&#x113;" horiz-adv-x="551" 
d="M139 579v79h274v-79h-274zM283 415c-67 0 -118 -47 -126 -124h246c-6 80 -56 124 -120 124zM504 114c-40 -76 -110 -126 -214 -126c-161 0 -248 110 -248 257s99 257 241 257c150 0 247 -121 225 -286h-352c5 -86 52 -137 134 -137c56 0 93 22 124 71z" />
    <glyph glyph-name="eogonek" unicode="&#x119;" horiz-adv-x="551" 
d="M375 -212c-65 0 -118 37 -118 105c0 30 8 61 45 95h-12c-161 0 -248 110 -248 257s99 257 241 257c150 0 246 -121 225 -286h-351c3 -86 51 -137 133 -137c56 0 93 22 124 71l90 -36c-52 -107 -166 -111 -166 -195c0 -30 20 -46 52 -46c21 0 38 4 57 14l20 -72
c-26 -17 -58 -27 -92 -27zM283 415c-67 0 -118 -47 -126 -124h246c-6 80 -56 124 -120 124z" />
    <glyph glyph-name="gbreve" unicode="&#x11f;" horiz-adv-x="568" 
d="M282 552c-89 0 -144 42 -159 111l-4 22l78 13l5 -17c11 -34 37 -50 80 -50s68 16 79 50l5 17l79 -13l-5 -22c-15 -69 -70 -111 -158 -111zM277 423c-69 0 -107 -33 -107 -89c0 -52 43 -89 107 -89c70 0 107 34 107 89c0 53 -42 89 -107 89zM535 -37
c0 -93 -83 -175 -262 -175c-170 0 -242 66 -242 141c0 25 9 48 25 66l53 10c-44 19 -69 56 -69 99c0 46 29 86 89 102c-42 29 -66 72 -66 128c0 107 87 168 214 168c32 0 60 -4 86 -12h195v-91l-101 9c24 -24 35 -51 35 -84c0 -99 -83 -158 -215 -158h-1v0h-88
c-35 0 -51 -17 -51 -39s16 -37 51 -37h189c103 0 158 -50 158 -127zM275 -134c102 0 155 32 155 77c0 34 -21 48 -69 48h-179c-9 0 -18 1 -27 2c-9 -16 -14 -32 -14 -48c0 -47 38 -79 134 -79z" />
    <glyph glyph-name="gcircumflex" unicode="&#x11d;" horiz-adv-x="568" 
d="M430 547l-148 56l-148 -56l-27 69l175 85l174 -85zM277 423c-69 0 -107 -33 -107 -89c0 -52 43 -89 107 -89c70 0 107 34 107 89c0 53 -42 89 -107 89zM535 -37c0 -93 -83 -175 -262 -175c-170 0 -242 66 -242 141c0 25 9 48 25 66l53 10c-44 19 -69 56 -69 99
c0 46 29 86 89 102c-42 29 -66 72 -66 128c0 107 87 168 214 168c32 0 60 -4 86 -12h195v-91l-101 9c24 -24 35 -51 35 -84c0 -99 -83 -158 -215 -158h-1v0h-88c-35 0 -51 -17 -51 -39s16 -37 51 -37h189c103 0 158 -50 158 -127zM275 -134c102 0 155 32 155 77
c0 34 -21 48 -69 48h-179c-9 0 -18 1 -27 2c-9 -16 -14 -32 -14 -48c0 -47 38 -79 134 -79z" />
    <glyph glyph-name="gcommaaccent" unicode="&#x123;" horiz-adv-x="562" 
d="M281 550c-35 0 -63 24 -63 73c0 51 31 101 65 129l39 -30c-13 -16 -25 -38 -29 -63c33 -7 48 -28 48 -53c0 -31 -26 -56 -60 -56zM277 423c-69 0 -107 -33 -107 -89c0 -52 43 -89 107 -89c70 0 107 34 107 89c0 53 -42 89 -107 89zM535 -37c0 -93 -83 -175 -262 -175
c-170 0 -242 66 -242 141c0 25 9 48 25 66l53 10c-44 19 -69 56 -69 99c0 46 29 86 89 102c-42 29 -66 72 -66 128c0 107 87 168 214 168c32 0 60 -4 86 -12h195v-91l-101 9c24 -24 35 -51 35 -84c0 -99 -83 -158 -215 -158h-1v0h-88c-35 0 -51 -17 -51 -39s16 -37 51 -37
h189c103 0 158 -50 158 -127zM275 -134c102 0 155 32 155 77c0 34 -21 48 -69 48h-179c-9 0 -18 1 -27 2c-9 -16 -14 -32 -14 -48c0 -47 38 -79 134 -79z" />
    <glyph glyph-name="gdotaccent" unicode="&#x121;" horiz-adv-x="568" 
d="M282 550c-37 0 -67 29 -67 64s30 63 67 63c36 0 66 -28 66 -63s-30 -64 -66 -64zM277 423c-69 0 -107 -33 -107 -89c0 -52 43 -89 107 -89c70 0 107 34 107 89c0 53 -42 89 -107 89zM535 -37c0 -93 -83 -175 -262 -175c-170 0 -242 66 -242 141c0 25 9 48 25 66l53 10
c-44 19 -69 56 -69 99c0 46 29 86 89 102c-42 29 -66 72 -66 128c0 107 87 168 214 168c32 0 60 -4 86 -12h195v-91l-101 9c24 -24 35 -51 35 -84c0 -99 -83 -158 -215 -158h-1v0h-88c-35 0 -51 -17 -51 -39s16 -37 51 -37h189c103 0 158 -50 158 -127zM275 -134
c102 0 155 32 155 77c0 34 -21 48 -69 48h-179c-9 0 -18 1 -27 2c-9 -16 -14 -32 -14 -48c0 -47 38 -79 134 -79z" />
    <glyph glyph-name="hbar" unicode="&#x127;" horiz-adv-x="586" 
d="M182 279v-279h-110v549h-58v70h58v61h110v-61h121v-70h-121v-142c30 64 84 95 151 95c137 0 189 -91 189 -213v-289h-110v284c0 76 -36 120 -111 120s-119 -46 -119 -125z" />
    <glyph glyph-name="hcircumflex" unicode="&#x125;" horiz-adv-x="586" 
d="M395 737l-148 56l-148 -56l-27 69l175 85l174 -85zM182 279v-279h-110v680h110v-273c30 64 84 95 151 95c137 0 189 -91 189 -213v-289h-110v284c0 76 -36 120 -111 120s-119 -46 -119 -125z" />
    <glyph glyph-name="iacute" unicode="&#xed;" horiz-adv-x="255" 
d="M9 547l-18 72l255 82l22 -91zM182 490v-490h-110v490h110z" />
    <glyph glyph-name="icircumflex" unicode="&#xee;" horiz-adv-x="255" 
d="M276 547l-148 56l-148 -56l-27 69l175 85l174 -85zM182 490v-490h-110v490h110z" />
    <glyph glyph-name="idieresis" unicode="&#xef;" horiz-adv-x="255" 
d="M228 550c-36 0 -64 28 -64 61c0 34 28 61 64 61c35 0 64 -27 64 -61c0 -33 -29 -61 -64 -61zM28 550c-36 0 -64 28 -64 61c0 34 28 61 64 61c35 0 64 -27 64 -61c0 -33 -29 -61 -64 -61zM182 490v-490h-110v490h110z" />
    <glyph glyph-name="igrave" unicode="&#xec;" horiz-adv-x="255" 
d="M246 547l-259 63l22 91l255 -82zM182 490v-490h-110v490h110z" />
    <glyph glyph-name="ibreve" unicode="&#x12d;" horiz-adv-x="255" 
d="M128 552c-89 0 -144 42 -159 111l-4 22l78 13l5 -17c11 -34 37 -50 80 -50s68 16 79 50l5 17l79 -13l-5 -22c-15 -69 -70 -111 -158 -111zM182 490v-490h-110v490h110z" />
    <glyph glyph-name="i.dot" horiz-adv-x="255" 
d="M127 579c-39 0 -71 31 -71 69s32 68 71 68c40 0 72 -30 72 -68s-32 -69 -72 -69zM182 490v-490h-110v490h110z" />
    <glyph glyph-name="imacron" unicode="&#x12b;" horiz-adv-x="255" 
d="M-9 579v79h274v-79h-274zM182 490v-490h-110v490h110z" />
    <glyph glyph-name="iogonek" unicode="&#x12f;" horiz-adv-x="255" 
d="M127 579c-39 0 -71 31 -71 69s32 68 71 68c40 0 72 -30 72 -68s-32 -69 -72 -69zM186 -191c-23 -14 -49 -21 -78 -21c-61 0 -110 35 -110 101c0 41 18 75 74 111v490h110v-490h-41l-11 -8c-43 -32 -52 -54 -52 -78c0 -26 17 -41 45 -41c17 0 30 3 46 10z" />
    <glyph glyph-name="itilde" unicode="&#x129;" horiz-adv-x="255" 
d="M-40 556l4 30c10 72 42 109 95 109c59 0 101 -64 129 -64c14 0 22 8 27 36l5 29l76 -8l-4 -30c-10 -72 -40 -109 -95 -109c-58 0 -102 65 -128 65c-14 0 -21 -8 -27 -36l-6 -30zM182 490v-490h-110v490h110z" />
    <glyph glyph-name="jcircumflex" unicode="&#x135;" horiz-adv-x="255" 
d="M276 547l-148 56l-148 -56l-27 69l175 85l174 -85zM182 490v-532c0 -103 -52 -170 -156 -170c-37 0 -72 11 -101 25l30 82c18 -8 37 -15 53 -15c44 0 64 21 64 78v532h110z" />
    <glyph glyph-name="ij" unicode="&#x133;" horiz-adv-x="510" 
d="M382 579c-39 0 -71 31 -71 69s32 68 71 68c40 0 72 -30 72 -68s-32 -69 -72 -69zM127 579c-39 0 -71 31 -71 69s32 68 71 68c40 0 72 -30 72 -68s-32 -69 -72 -69zM182 490v-490h-110v490h110zM437 490v-532c0 -103 -52 -170 -156 -170c-37 0 -72 11 -101 25l30 82
c18 -8 37 -15 53 -15c44 0 64 21 64 78v532h110z" />
    <glyph glyph-name="kcommaaccent" unicode="&#x137;" horiz-adv-x="541" 
d="M414 0l-147 219l-85 -95v-124h-110v680h110v-427l216 237h123l-176 -197l196 -293h-127zM280 -260l-39 30c13 16 25 38 29 63c-33 7 -48 28 -48 53c0 31 26 56 60 56c35 0 63 -24 63 -73c0 -51 -31 -101 -65 -129z" />
    <glyph glyph-name="lacute" unicode="&#x13a;" horiz-adv-x="255" 
d="M9 737l-18 72l255 82l22 -91zM182 680v-680h-110v680h110z" />
    <glyph glyph-name="lcaron" unicode="&#x13e;" horiz-adv-x="374" 
d="M366 609l-19 -162h-80v233h99v-71zM182 680v-680h-110v680h110z" />
    <glyph glyph-name="lcommaaccent" unicode="&#x13c;" horiz-adv-x="255" 
d="M182 680v-680h-110v680h110zM127 -260l-39 30c13 16 25 38 29 63c-33 7 -48 28 -48 53c0 31 26 56 60 56c35 0 63 -24 63 -73c0 -51 -31 -101 -65 -129z" />
    <glyph glyph-name="ldot" unicode="&#x140;" horiz-adv-x="396" 
d="M182 680v-680h-110v680h110zM324 265c-40 0 -72 31 -72 69s32 68 72 68c39 0 71 -30 71 -68s-32 -69 -71 -69z" />
    <glyph glyph-name="ntilde" unicode="&#xf1;" horiz-adv-x="586" 
d="M125 556l4 30c10 72 42 109 95 109c59 0 101 -64 129 -64c14 0 22 8 27 36l5 29l76 -8l-4 -30c-10 -72 -40 -109 -95 -109c-58 0 -102 65 -128 65c-14 0 -21 -8 -27 -36l-6 -30zM182 279v-279h-110v490h103v-89c30 68 87 101 158 101c137 0 189 -91 189 -213v-289h-110
v284c0 76 -36 120 -111 120s-119 -46 -119 -125z" />
    <glyph glyph-name="nacute" unicode="&#x144;" horiz-adv-x="586" 
d="M174 547l-18 72l255 82l22 -91zM182 279v-279h-110v490h103v-89c30 68 87 101 158 101c137 0 189 -91 189 -213v-289h-110v284c0 76 -36 120 -111 120s-119 -46 -119 -125z" />
    <glyph glyph-name="ncaron" unicode="&#x148;" horiz-adv-x="586" 
d="M293 548l-174 85l26 69l148 -56l148 56l27 -69zM182 279v-279h-110v490h103v-89c30 68 87 101 158 101c137 0 189 -91 189 -213v-289h-110v284c0 76 -36 120 -111 120s-119 -46 -119 -125z" />
    <glyph glyph-name="ncommaaccent" unicode="&#x146;" horiz-adv-x="586" 
d="M182 279v-279h-110v490h103v-89c30 68 87 101 158 101c137 0 189 -91 189 -213v-289h-110v284c0 76 -36 120 -111 120s-119 -46 -119 -125zM292 -260l-39 30c13 16 25 38 29 63c-33 7 -48 28 -48 53c0 31 26 56 60 56c35 0 63 -24 63 -73c0 -51 -31 -101 -65 -129z" />
    <glyph glyph-name="oacute" unicode="&#xf3;" horiz-adv-x="571" 
d="M166 547l-18 72l255 82l22 -91zM285 -12c-145 0 -244 114 -244 257s99 257 244 257c146 0 244 -114 244 -257s-98 -257 -244 -257zM285 82c76 0 132 61 132 163s-56 163 -132 163c-75 0 -132 -61 -132 -163s57 -163 132 -163z" />
    <glyph glyph-name="ocircumflex" unicode="&#xf4;" horiz-adv-x="571" 
d="M433 547l-148 56l-148 -56l-27 69l175 85l174 -85zM285 -12c-145 0 -244 114 -244 257s99 257 244 257c146 0 244 -114 244 -257s-98 -257 -244 -257zM285 82c76 0 132 61 132 163s-56 163 -132 163c-75 0 -132 -61 -132 -163s57 -163 132 -163z" />
    <glyph glyph-name="odieresis" unicode="&#xf6;" horiz-adv-x="571" 
d="M385 550c-36 0 -64 28 -64 61c0 34 28 61 64 61c35 0 64 -27 64 -61c0 -33 -29 -61 -64 -61zM185 550c-36 0 -64 28 -64 61c0 34 28 61 64 61c35 0 64 -27 64 -61c0 -33 -29 -61 -64 -61zM285 -12c-145 0 -244 114 -244 257s99 257 244 257c146 0 244 -114 244 -257
s-98 -257 -244 -257zM285 82c76 0 132 61 132 163s-56 163 -132 163c-75 0 -132 -61 -132 -163s57 -163 132 -163z" />
    <glyph glyph-name="ograve" unicode="&#xf2;" horiz-adv-x="571" 
d="M403 547l-259 63l22 91l255 -82zM285 -12c-145 0 -244 114 -244 257s99 257 244 257c146 0 244 -114 244 -257s-98 -257 -244 -257zM285 82c76 0 132 61 132 163s-56 163 -132 163c-75 0 -132 -61 -132 -163s57 -163 132 -163z" />
    <glyph glyph-name="otilde" unicode="&#xf5;" horiz-adv-x="571" 
d="M117 556l4 30c10 72 42 109 95 109c59 0 101 -64 129 -64c14 0 22 8 27 36l5 29l76 -8l-4 -30c-10 -72 -40 -109 -95 -109c-58 0 -102 65 -128 65c-14 0 -21 -8 -27 -36l-6 -30zM285 -12c-145 0 -244 114 -244 257s99 257 244 257c146 0 244 -114 244 -257
s-98 -257 -244 -257zM285 82c76 0 132 61 132 163s-56 163 -132 163c-75 0 -132 -61 -132 -163s57 -163 132 -163z" />
    <glyph glyph-name="obreve" unicode="&#x14f;" horiz-adv-x="571" 
d="M285 552c-89 0 -144 42 -159 111l-4 22l78 13l5 -17c11 -34 37 -50 80 -50s68 16 79 50l5 17l79 -13l-5 -22c-15 -69 -70 -111 -158 -111zM285 -12c-145 0 -244 114 -244 257s99 257 244 257c146 0 244 -114 244 -257s-98 -257 -244 -257zM285 82c76 0 132 61 132 163
s-56 163 -132 163c-75 0 -132 -61 -132 -163s57 -163 132 -163z" />
    <glyph glyph-name="ohungarumlaut" unicode="&#x151;" horiz-adv-x="571" 
d="M320 547l-41 55l142 116l55 -70zM140 547l-41 55l142 116l55 -70zM285 -12c-145 0 -244 114 -244 257s99 257 244 257c146 0 244 -114 244 -257s-98 -257 -244 -257zM285 82c76 0 132 61 132 163s-56 163 -132 163c-75 0 -132 -61 -132 -163s57 -163 132 -163z" />
    <glyph glyph-name="omacron" unicode="&#x14d;" horiz-adv-x="571" 
d="M148 579v79h274v-79h-274zM285 -12c-145 0 -244 114 -244 257s99 257 244 257c146 0 244 -114 244 -257s-98 -257 -244 -257zM285 82c76 0 132 61 132 163s-56 163 -132 163c-75 0 -132 -61 -132 -163s57 -163 132 -163z" />
    <glyph glyph-name="racute" unicode="&#x155;" horiz-adv-x="386" 
d="M74 547l-18 72l255 82l22 -91zM182 268v-268h-110v490h101v-100c26 75 79 112 145 112c22 0 40 -4 53 -11l-19 -105c-17 4 -34 6 -50 6c-68 0 -120 -25 -120 -124z" />
    <glyph glyph-name="rcaron" unicode="&#x159;" horiz-adv-x="386" 
d="M193 548l-174 85l26 69l148 -56l148 56l27 -69zM182 268v-268h-110v490h101v-100c26 75 79 112 145 112c22 0 40 -4 53 -11l-19 -105c-17 4 -34 6 -50 6c-68 0 -120 -25 -120 -124z" />
    <glyph glyph-name="rcommaaccent" unicode="&#x157;" horiz-adv-x="386" 
d="M182 268v-268h-110v490h101v-100c26 75 79 112 145 112c22 0 40 -4 53 -11l-19 -105c-17 4 -34 6 -50 6c-68 0 -120 -25 -120 -124zM127 -260l-39 30c13 16 25 38 29 63c-33 7 -48 28 -48 53c0 31 26 56 60 56c35 0 63 -24 63 -73c0 -51 -31 -101 -65 -129z" />
    <glyph glyph-name="scaron" unicode="&#x161;" horiz-adv-x="484" 
d="M243 548l-174 85l26 69l148 -56l148 56l27 -69zM248 69c65 0 96 26 96 65c0 97 -301 30 -301 218c0 84 68 150 193 150c112 0 178 -52 205 -135l-97 -21c-18 46 -53 77 -108 77c-57 0 -89 -24 -89 -63c0 -107 300 -33 300 -218c0 -89 -75 -154 -203 -154
c-102 0 -186 40 -214 127l93 27c22 -48 65 -73 125 -73z" />
    <glyph glyph-name="sacute" unicode="&#x15b;" horiz-adv-x="484" 
d="M124 547l-18 72l255 82l22 -91zM248 69c65 0 96 26 96 65c0 97 -301 30 -301 218c0 84 68 150 193 150c112 0 178 -52 205 -135l-97 -21c-18 46 -53 77 -108 77c-57 0 -89 -24 -89 -63c0 -107 300 -33 300 -218c0 -89 -75 -154 -203 -154c-102 0 -186 40 -214 127l93 27
c22 -48 65 -73 125 -73z" />
    <glyph glyph-name="scedilla" unicode="&#x15f;" horiz-adv-x="484" 
d="M262 -212c-36 0 -68 8 -100 26l16 55c25 -11 47 -15 70 -15c27 0 44 10 44 29s-15 28 -47 28c-18 0 -35 -2 -56 -6l18 85c-85 9 -152 49 -177 125l93 27c22 -48 65 -73 125 -73c65 0 96 26 96 65c0 97 -301 30 -301 218c0 84 68 150 193 150c112 0 178 -52 205 -135
l-97 -21c-18 46 -53 77 -108 77c-57 0 -89 -24 -89 -63c0 -107 300 -33 300 -218c0 -83 -65 -145 -177 -153l-6 -30h9c60 0 98 -32 98 -78c0 -61 -48 -93 -109 -93z" />
    <glyph glyph-name="scircumflex" unicode="&#x15d;" horiz-adv-x="484" 
d="M391 547l-148 56l-148 -56l-27 69l175 85l174 -85zM248 69c65 0 96 26 96 65c0 97 -301 30 -301 218c0 84 68 150 193 150c112 0 178 -52 205 -135l-97 -21c-18 46 -53 77 -108 77c-57 0 -89 -24 -89 -63c0 -107 300 -33 300 -218c0 -89 -75 -154 -203 -154
c-102 0 -186 40 -214 127l93 27c22 -48 65 -73 125 -73z" />
    <glyph glyph-name="uni0219" unicode="&#x219;" horiz-adv-x="484" 
d="M248 69c65 0 96 26 96 65c0 97 -301 30 -301 218c0 84 68 150 193 150c112 0 178 -52 205 -135l-97 -21c-18 46 -53 77 -108 77c-57 0 -89 -24 -89 -63c0 -107 300 -33 300 -218c0 -89 -75 -154 -203 -154c-102 0 -186 40 -214 127l93 27c22 -48 65 -73 125 -73z
M242 -260l-39 30c13 16 25 38 29 63c-33 7 -48 28 -48 53c0 31 26 56 60 56c35 0 63 -24 63 -73c0 -51 -31 -101 -65 -129z" />
    <glyph glyph-name="tbar" unicode="&#x167;" horiz-adv-x="409" 
d="M396 38c-43 -35 -89 -50 -139 -50c-93 0 -158 57 -158 175v56h-81v82h81v99h-84v90h89l23 115h82v-115h152v-90h-152v-99h129v-82h-129v-56c0 -54 26 -79 64 -79c27 0 49 10 77 31z" />
    <glyph glyph-name="tcaron" unicode="&#x165;" horiz-adv-x="409" 
d="M366 703l-19 -162h-80v233h99v-71zM361 400h-152v-237c0 -54 26 -79 64 -79c27 0 49 10 77 31l46 -77c-43 -35 -89 -50 -139 -50c-93 0 -158 57 -158 175v237h-84v90h89l23 115h82v-115h152v-90z" />
    <glyph glyph-name="uni0163" unicode="&#x163;" horiz-adv-x="409" 
d="M361 400h-152v-237c0 -54 26 -79 64 -79c27 0 49 10 77 31l46 -77c-43 -35 -89 -50 -139 -50c-93 0 -158 57 -158 175v237h-84v90h89l23 115h82v-115h152v-90zM221 -260l-39 30c13 16 25 38 29 63c-33 7 -48 28 -48 53c0 31 26 56 60 56c35 0 63 -24 63 -73
c0 -51 -31 -101 -65 -129z" />
    <glyph glyph-name="uni021B" unicode="&#x21b;" horiz-adv-x="409" 
d="M361 400h-152v-237c0 -54 26 -79 64 -79c27 0 49 10 77 31l46 -77c-43 -35 -89 -50 -139 -50c-93 0 -158 57 -158 175v237h-84v90h89l23 115h82v-115h152v-90zM221 -260l-39 30c13 16 25 38 29 63c-33 7 -48 28 -48 53c0 31 26 56 60 56c35 0 63 -24 63 -73
c0 -51 -31 -101 -65 -129z" />
    <glyph glyph-name="uacute" unicode="&#xfa;" horiz-adv-x="580" 
d="M171 547l-18 72l255 82l22 -91zM405 0v90c-29 -69 -86 -102 -156 -102c-136 0 -186 91 -186 213v289h110v-284c0 -76 33 -121 108 -121c74 0 116 47 116 126v279h110v-490h-102z" />
    <glyph glyph-name="ucircumflex" unicode="&#xfb;" horiz-adv-x="580" 
d="M438 547l-148 56l-148 -56l-27 69l175 85l174 -85zM405 0v90c-29 -69 -86 -102 -156 -102c-136 0 -186 91 -186 213v289h110v-284c0 -76 33 -121 108 -121c74 0 116 47 116 126v279h110v-490h-102z" />
    <glyph glyph-name="udieresis" unicode="&#xfc;" horiz-adv-x="580" 
d="M390 550c-36 0 -64 28 -64 61c0 34 28 61 64 61c35 0 64 -27 64 -61c0 -33 -29 -61 -64 -61zM190 550c-36 0 -64 28 -64 61c0 34 28 61 64 61c35 0 64 -27 64 -61c0 -33 -29 -61 -64 -61zM405 0v90c-29 -69 -86 -102 -156 -102c-136 0 -186 91 -186 213v289h110v-284
c0 -76 33 -121 108 -121c74 0 116 47 116 126v279h110v-490h-102z" />
    <glyph glyph-name="ugrave" unicode="&#xf9;" horiz-adv-x="580" 
d="M408 547l-259 63l22 91l255 -82zM405 0v90c-29 -69 -86 -102 -156 -102c-136 0 -186 91 -186 213v289h110v-284c0 -76 33 -121 108 -121c74 0 116 47 116 126v279h110v-490h-102z" />
    <glyph glyph-name="ubreve" unicode="&#x16d;" horiz-adv-x="580" 
d="M290 552c-89 0 -144 42 -159 111l-4 22l78 13l5 -17c11 -34 37 -50 80 -50s68 16 79 50l5 17l79 -13l-5 -22c-15 -69 -70 -111 -158 -111zM405 0v90c-29 -69 -86 -102 -156 -102c-136 0 -186 91 -186 213v289h110v-284c0 -76 33 -121 108 -121c74 0 116 47 116 126v279
h110v-490h-102z" />
    <glyph glyph-name="uhungarumlaut" unicode="&#x171;" horiz-adv-x="580" 
d="M325 547l-41 55l142 116l55 -70zM145 547l-41 55l142 116l55 -70zM405 0v90c-29 -69 -86 -102 -156 -102c-136 0 -186 91 -186 213v289h110v-284c0 -76 33 -121 108 -121c74 0 116 47 116 126v279h110v-490h-102z" />
    <glyph glyph-name="umacron" unicode="&#x16b;" horiz-adv-x="580" 
d="M153 579v79h274v-79h-274zM405 0v90c-29 -69 -86 -102 -156 -102c-136 0 -186 91 -186 213v289h110v-284c0 -76 33 -121 108 -121c74 0 116 47 116 126v279h110v-490h-102z" />
    <glyph glyph-name="uogonek" unicode="&#x173;" horiz-adv-x="580" 
d="M507 -191c-23 -14 -49 -21 -78 -21c-61 0 -110 35 -110 101c0 44 21 79 86 119v82c-29 -69 -86 -102 -156 -102c-136 0 -186 91 -186 213v289h110v-284c0 -76 33 -121 108 -121c74 0 116 47 116 126v279h110v-490h-45l-11 -8c-43 -32 -52 -54 -52 -78
c0 -26 17 -41 45 -41c17 0 30 3 46 10z" />
    <glyph glyph-name="uring" unicode="&#x16f;" horiz-adv-x="580" 
d="M290 550c-71 0 -128 55 -128 122c0 68 57 122 128 122c70 0 127 -54 127 -122c0 -67 -57 -122 -127 -122zM290 620c27 0 50 22 50 52s-23 53 -50 53s-50 -23 -50 -53s23 -52 50 -52zM405 0v90c-29 -69 -86 -102 -156 -102c-136 0 -186 91 -186 213v289h110v-284
c0 -76 33 -121 108 -121c74 0 116 47 116 126v279h110v-490h-102z" />
    <glyph glyph-name="utilde" unicode="&#x169;" horiz-adv-x="580" 
d="M122 556l4 30c10 72 42 109 95 109c59 0 101 -64 129 -64c14 0 22 8 27 36l5 29l76 -8l-4 -30c-10 -72 -40 -109 -95 -109c-58 0 -102 65 -128 65c-14 0 -21 -8 -27 -36l-6 -30zM405 0v90c-29 -69 -86 -102 -156 -102c-136 0 -186 91 -186 213v289h110v-284
c0 -76 33 -121 108 -121c74 0 116 47 116 126v279h110v-490h-102z" />
    <glyph glyph-name="wacute" unicode="&#x1e83;" horiz-adv-x="765" 
d="M263 547l-18 72l255 82l22 -91zM147 0l-127 490h105l92 -400l108 400h111l113 -400l92 400h103l-127 -490h-136l-100 376l-101 -376h-133z" />
    <glyph glyph-name="wcircumflex" unicode="&#x175;" horiz-adv-x="765" 
d="M530 547l-148 56l-148 -56l-27 69l175 85l174 -85zM147 0l-127 490h105l92 -400l108 400h111l113 -400l92 400h103l-127 -490h-136l-100 376l-101 -376h-133z" />
    <glyph glyph-name="wdieresis" unicode="&#x1e85;" horiz-adv-x="765" 
d="M482 550c-36 0 -64 28 -64 61c0 34 28 61 64 61c35 0 64 -27 64 -61c0 -33 -29 -61 -64 -61zM282 550c-36 0 -64 28 -64 61c0 34 28 61 64 61c35 0 64 -27 64 -61c0 -33 -29 -61 -64 -61zM147 0l-127 490h105l92 -400l108 400h111l113 -400l92 400h103l-127 -490h-136
l-100 376l-101 -376h-133z" />
    <glyph glyph-name="wgrave" unicode="&#x1e81;" horiz-adv-x="765" 
d="M500 547l-259 63l22 91l255 -82zM147 0l-127 490h105l92 -400l108 400h111l113 -400l92 400h103l-127 -490h-136l-100 376l-101 -376h-133z" />
    <glyph glyph-name="yacute" unicode="&#xfd;" horiz-adv-x="513" 
d="M139 547l-18 72l255 82l22 -91zM135 -212c-39 0 -80 12 -116 39l48 80c22 -16 43 -24 68 -24c37 0 63 15 81 68l16 49h-35l-182 490h114l136 -393l131 393h104l-194 -558c-37 -106 -86 -144 -171 -144z" />
    <glyph glyph-name="ydieresis" unicode="&#xff;" horiz-adv-x="513" 
d="M358 550c-36 0 -64 28 -64 61c0 34 28 61 64 61c35 0 64 -27 64 -61c0 -33 -29 -61 -64 -61zM158 550c-36 0 -64 28 -64 61c0 34 28 61 64 61c35 0 64 -27 64 -61c0 -33 -29 -61 -64 -61zM135 -212c-39 0 -80 12 -116 39l48 80c22 -16 43 -24 68 -24c37 0 63 15 81 68
l16 49h-35l-182 490h114l136 -393l131 393h104l-194 -558c-37 -106 -86 -144 -171 -144z" />
    <glyph glyph-name="ycircumflex" unicode="&#x177;" horiz-adv-x="513" 
d="M406 547l-148 56l-148 -56l-27 69l175 85l174 -85zM135 -212c-39 0 -80 12 -116 39l48 80c22 -16 43 -24 68 -24c37 0 63 15 81 68l16 49h-35l-182 490h114l136 -393l131 393h104l-194 -558c-37 -106 -86 -144 -171 -144z" />
    <glyph glyph-name="ygrave" unicode="&#x1ef3;" horiz-adv-x="513" 
d="M376 547l-259 63l22 91l255 -82zM135 -212c-39 0 -80 12 -116 39l48 80c22 -16 43 -24 68 -24c37 0 63 15 81 68l16 49h-35l-182 490h114l136 -393l131 393h104l-194 -558c-37 -106 -86 -144 -171 -144z" />
    <glyph glyph-name="zcaron" unicode="&#x17e;" horiz-adv-x="458" 
d="M230 548l-174 85l26 69l148 -56l148 56l27 -69zM426 0h-392v78l250 324h-246v88h378v-78l-251 -325h261v-87z" />
    <glyph glyph-name="zacute" unicode="&#x17a;" horiz-adv-x="458" 
d="M111 547l-18 72l255 82l22 -91zM426 0h-392v78l250 324h-246v88h378v-78l-251 -325h261v-87z" />
    <glyph glyph-name="zdotaccent" unicode="&#x17c;" horiz-adv-x="458" 
d="M230 550c-37 0 -67 29 -67 64s30 63 67 63c36 0 66 -28 66 -63s-30 -64 -66 -64zM426 0h-392v78l250 324h-246v88h378v-78l-251 -325h261v-87z" />
    <glyph glyph-name="acute" unicode="&#xb4;" 
d="M131 547l-18 72l255 82l22 -91z" />
    <glyph glyph-name="grave" unicode="`" 
d="M368 547l-259 63l22 91l255 -82z" />
    <glyph glyph-name="circumflex" unicode="&#x2c6;" 
d="M398 547l-148 56l-148 -56l-27 69l175 85l174 -85z" />
    <glyph glyph-name="caron" unicode="&#x2c7;" 
d="M250 548l-174 85l26 69l148 -56l148 56l27 -69z" />
    <glyph glyph-name="tilde" unicode="&#x2dc;" 
d="M82 556l4 30c10 72 42 109 95 109c59 0 101 -64 129 -64c14 0 22 8 27 36l5 29l76 -8l-4 -30c-10 -72 -40 -109 -95 -109c-58 0 -102 65 -128 65c-14 0 -21 -8 -27 -36l-6 -30z" />
    <glyph glyph-name="dieresis" unicode="&#xa8;" 
d="M350 550c-36 0 -64 28 -64 61c0 34 28 61 64 61c35 0 64 -27 64 -61c0 -33 -29 -61 -64 -61zM150 550c-36 0 -64 28 -64 61c0 34 28 61 64 61c35 0 64 -27 64 -61c0 -33 -29 -61 -64 -61z" />
    <glyph glyph-name="ring" unicode="&#x2da;" 
d="M250 550c-71 0 -128 55 -128 122c0 68 57 122 128 122c70 0 127 -54 127 -122c0 -67 -57 -122 -127 -122zM250 620c27 0 50 22 50 52s-23 53 -50 53s-50 -23 -50 -53s23 -52 50 -52z" />
    <glyph glyph-name="cedilla" unicode="&#xb8;" 
d="M270 -212c-35 0 -70 7 -101 22l17 59c25 -11 47 -16 70 -16c26 0 42 11 42 30c0 18 -14 27 -45 27c-18 0 -35 -2 -56 -5l25 119h67l-12 -63h4c59 0 98 -34 98 -81c0 -60 -48 -92 -109 -92z" />
    <glyph glyph-name="hungarumlaut" unicode="&#x2dd;" 
d="M285 547l-41 55l142 116l55 -70zM105 547l-41 55l142 116l55 -70z" />
    <glyph glyph-name="breve" unicode="&#x2d8;" 
d="M250 552c-89 0 -144 42 -159 111l-4 22l78 13l5 -17c11 -34 37 -50 80 -50s68 16 79 50l5 17l79 -13l-5 -22c-15 -69 -70 -111 -158 -111z" />
    <glyph glyph-name="macron" unicode="&#xaf;" 
d="M113 579v79h274v-79h-274z" />
    <glyph glyph-name="dotaccent" unicode="&#x2d9;" 
d="M250 550c-37 0 -67 29 -67 64s30 63 67 63c36 0 66 -28 66 -63s-30 -64 -66 -64z" />
    <glyph glyph-name="periodcentered" unicode="&#xb7;" 
d="M250 265c-40 0 -72 31 -72 69s32 68 72 68c39 0 71 -30 71 -68s-32 -69 -71 -69z" />
    <glyph glyph-name="ogonek" unicode="&#x2db;" 
d="M338 20l-37 -28c-43 -32 -52 -54 -52 -78c0 -26 17 -41 45 -41c17 0 30 3 46 10l17 -74c-23 -14 -49 -21 -78 -21c-61 0 -110 35 -110 101c0 46 23 83 96 125l21 12z" />
    <glyph glyph-name="commaaccent" unicode="&#xf6c3;" 
d="M249 -260l-39 30c13 16 25 38 29 63c-33 7 -48 28 -48 53c0 31 26 56 60 56c35 0 63 -24 63 -73c0 -51 -31 -101 -65 -129z" />
    <glyph glyph-name="caron.alt" 
d="M300 579l-19 -162h-80v233h99v-71z" />
    <glyph glyph-name="revcommaaccent" 
d="M249 550c-35 0 -63 24 -63 73c0 51 31 101 65 129l39 -30c-13 -16 -25 -38 -29 -63c33 -7 48 -28 48 -53c0 -31 -26 -56 -60 -56z" />
    <glyph glyph-name="period" unicode="." horiz-adv-x="258" 
d="M129 -12c-40 0 -72 30 -72 68s32 69 72 69c39 0 71 -31 71 -69s-32 -68 -71 -68z" />
    <glyph glyph-name="comma" unicode="," horiz-adv-x="258" 
d="M55 -148h-6v72h4c41 0 63 22 63 64c-40 9 -59 37 -59 68c0 38 31 69 70 69c41 0 75 -29 75 -94c0 -113 -64 -179 -147 -179z" />
    <glyph glyph-name="colon" unicode=":" horiz-adv-x="258" 
d="M129 365c-40 0 -72 30 -72 68s32 69 72 69c39 0 71 -31 71 -69s-32 -68 -71 -68zM129 -12c-40 0 -72 30 -72 68s32 69 72 69c39 0 71 -31 71 -69s-32 -68 -71 -68z" />
    <glyph glyph-name="semicolon" unicode=";" horiz-adv-x="258" 
d="M129 365c-40 0 -72 30 -72 68s32 69 72 69c39 0 71 -31 71 -69s-32 -68 -71 -68zM55 -148h-6v72h4c41 0 63 22 63 64c-40 9 -59 37 -59 68c0 38 31 69 70 69c41 0 75 -29 75 -94c0 -113 -64 -179 -147 -179z" />
    <glyph glyph-name="ellipsis" unicode="&#x2026;" horiz-adv-x="718" 
d="M589 -12c-40 0 -72 30 -72 68s32 69 72 69c39 0 71 -31 71 -69s-32 -68 -71 -68zM359 -12c-40 0 -72 30 -72 68s32 69 72 69c39 0 71 -31 71 -69s-32 -68 -71 -68zM129 -12c-40 0 -72 30 -72 68s32 69 72 69c39 0 71 -31 71 -69s-32 -68 -71 -68z" />
    <glyph glyph-name="question" unicode="?" horiz-adv-x="526" 
d="M302 197h-95l-8 130l62 21c93 33 118 71 118 125c0 48 -36 88 -109 88c-55 0 -115 -21 -161 -84l-95 52c55 83 147 133 253 133c165 0 228 -98 228 -184c0 -98 -48 -154 -171 -198l-18 -6zM254 -12c-38 0 -69 29 -69 66c0 36 31 66 69 66s69 -30 69 -66
c0 -37 -31 -66 -69 -66z" />
    <glyph glyph-name="exclam" unicode="!" horiz-adv-x="251" 
d="M187 499l-16 -302h-92l-15 302v151h123v-151zM125 -12c-38 0 -69 29 -69 66c0 36 31 66 69 66s69 -30 69 -66c0 -37 -31 -66 -69 -66z" />
    <glyph glyph-name="questiondown" unicode="&#xbf;" horiz-adv-x="526" 
d="M272 502c38 0 69 -29 69 -66c0 -36 -31 -66 -69 -66s-69 30 -69 66c0 37 31 66 69 66zM259 -172c-165 0 -228 98 -228 184c0 98 48 154 171 198l18 6l4 77h95l8 -130l-62 -21c-93 -33 -118 -71 -118 -125c0 -48 36 -88 109 -88c55 0 115 21 161 84l95 -52
c-55 -83 -147 -133 -253 -133z" />
    <glyph glyph-name="exclamdown" unicode="&#xa1;" horiz-adv-x="251" 
d="M126 502c38 0 69 -29 69 -66c0 -36 -31 -66 -69 -66s-69 30 -69 66c0 37 31 66 69 66zM64 -9l16 302h92l15 -302v-151h-123v151z" />
    <glyph glyph-name="parenleft" unicode="(" horiz-adv-x="282" 
d="M39 287c0 161 48 292 131 413h84c-69 -109 -116 -252 -116 -413c0 -163 48 -308 116 -417h-84c-83 121 -131 253 -131 417z" />
    <glyph glyph-name="parenright" unicode=")" horiz-adv-x="282" 
d="M242 287c0 -164 -48 -297 -131 -417h-84c69 109 117 254 117 417c0 161 -48 304 -117 413h84c83 -120 131 -252 131 -413z" />
    <glyph glyph-name="braceleft" unicode="{" horiz-adv-x="311" 
d="M281 -123c-13 -4 -30 -7 -52 -7c-88 0 -147 49 -147 140c0 56 25 116 25 172c0 43 -19 65 -68 65h-20v76h20c49 0 68 21 68 64c0 56 -25 116 -25 173c0 91 59 140 147 140c22 0 39 -3 52 -7v-73c-12 3 -23 5 -40 5c-42 0 -68 -21 -68 -69c0 -53 24 -115 24 -169
c0 -49 -17 -85 -66 -102c49 -18 66 -54 66 -103c0 -54 -24 -117 -24 -169c0 -47 26 -68 68 -68c17 0 28 2 40 5v-73z" />
    <glyph glyph-name="braceright" unicode="}" horiz-adv-x="311" 
d="M82 -130c-23 0 -39 3 -52 7v73c12 -3 23 -5 40 -5c42 0 68 21 68 68c0 53 -24 116 -24 169c0 49 18 86 67 103c-49 17 -67 53 -67 102c0 54 24 116 24 169c0 48 -26 69 -68 69c-17 0 -28 -2 -40 -5v73c13 4 29 7 52 7c88 0 147 -49 147 -140c0 -57 -25 -117 -25 -173
c0 -43 18 -64 68 -64h20v-76h-20c-50 0 -68 -22 -68 -65c0 -56 25 -116 25 -172c0 -91 -59 -140 -147 -140z" />
    <glyph glyph-name="bracketleft" unicode="[" horiz-adv-x="292" 
d="M75 -130v830h187v-76h-94v-678h94v-76h-187z" />
    <glyph glyph-name="bracketright" unicode="]" horiz-adv-x="292" 
d="M30 -130v76h94v678h-94v76h187v-830h-187z" />
    <glyph glyph-name="slash" unicode="/" horiz-adv-x="365" 
d="M10 -40l251 760h94l-252 -760h-93z" />
    <glyph glyph-name="backslash" unicode="\" horiz-adv-x="365" 
d="M10 720h93l252 -760h-94z" />
    <glyph glyph-name="underscore" unicode="_" horiz-adv-x="485" 
d="M38 -115v80h408v-80h-408z" />
    <glyph glyph-name="hyphen" unicode="-" horiz-adv-x="383" 
d="M38 236v90h306v-90h-306z" />
    <glyph glyph-name="uni00AD" unicode="&#xad;" horiz-adv-x="0" 
 />
    <glyph glyph-name="endash" unicode="&#x2013;" 
d="M38 236v90h423v-90h-423z" />
    <glyph glyph-name="emdash" unicode="&#x2014;" horiz-adv-x="1000" 
d="M38 236v90h923v-90h-923z" />
    <glyph glyph-name="brokenbar" unicode="&#xa6;" horiz-adv-x="236" 
d="M73 750h90v-380h-90v380zM73 280h90v-380h-90v380z" />
    <glyph glyph-name="bar" unicode="|" horiz-adv-x="240" 
d="M75 750h90v-850h-90v850z" />
    <glyph glyph-name="guillemotleft" unicode="&#xab;" horiz-adv-x="455" 
d="M424 100h-104l-100 175l100 175h104l-102 -175zM234 100h-104l-100 175l100 175h104l-102 -175z" />
    <glyph glyph-name="guillemotright" unicode="&#xbb;" horiz-adv-x="455" 
d="M134 100h-103l101 175l-101 175h103l101 -175zM324 100h-103l101 175l-101 175h103l101 -175z" />
    <glyph glyph-name="guilsinglleft" unicode="&#x2039;" horiz-adv-x="265" 
d="M234 100h-104l-100 175l100 175h104l-102 -175z" />
    <glyph glyph-name="guilsinglright" unicode="&#x203a;" horiz-adv-x="265" 
d="M134 100h-103l101 175l-101 175h103l101 -175z" />
    <glyph glyph-name="quotesinglbase" unicode="&#x201a;" horiz-adv-x="258" 
d="M55 -148h-6v72h4c41 0 63 22 63 64c-40 9 -59 37 -59 68c0 38 31 69 70 69c41 0 75 -29 75 -94c0 -113 -64 -179 -147 -179z" />
    <glyph glyph-name="quotedblbase" unicode="&#x201e;" horiz-adv-x="458" 
d="M255 -148h-6v72h4c41 0 63 22 63 64c-40 9 -59 37 -59 68c0 38 31 69 70 69c41 0 75 -29 75 -94c0 -113 -64 -179 -147 -179zM55 -148h-6v72h4c41 0 63 22 63 64c-40 9 -59 37 -59 68c0 38 31 69 70 69c41 0 75 -29 75 -94c0 -113 -64 -179 -147 -179z" />
    <glyph glyph-name="quoteleft" unicode="&#x2018;" horiz-adv-x="258" 
d="M131 389c-41 0 -75 29 -75 94c0 113 64 179 147 179h6v-72h-4c-41 0 -63 -22 -63 -64c40 -9 59 -37 59 -68c0 -38 -31 -69 -70 -69z" />
    <glyph glyph-name="quotedblleft" unicode="&#x201c;" horiz-adv-x="458" 
d="M131 389c-41 0 -75 29 -75 94c0 113 64 179 147 179h6v-72h-4c-41 0 -63 -22 -63 -64c40 -9 59 -37 59 -68c0 -38 -31 -69 -70 -69zM331 389c-41 0 -75 29 -75 94c0 113 64 179 147 179h6v-72h-4c-41 0 -63 -22 -63 -64c40 -9 59 -37 59 -68c0 -38 -31 -69 -70 -69z" />
    <glyph glyph-name="quoteright" unicode="&#x2019;" horiz-adv-x="258" 
d="M55 389h-6v72h4c41 0 63 22 63 64c-40 9 -59 37 -59 68c0 38 31 69 70 69c41 0 75 -29 75 -94c0 -113 -64 -179 -147 -179z" />
    <glyph glyph-name="quotedblright" unicode="&#x201d;" horiz-adv-x="458" 
d="M255 389h-6v72h4c41 0 63 22 63 64c-40 9 -59 37 -59 68c0 38 31 69 70 69c41 0 75 -29 75 -94c0 -113 -64 -179 -147 -179zM55 389h-6v72h4c41 0 63 22 63 64c-40 9 -59 37 -59 68c0 38 31 69 70 69c41 0 75 -29 75 -94c0 -113 -64 -179 -147 -179z" />
    <glyph glyph-name="quotesingle" unicode="'" horiz-adv-x="213" 
d="M163 532l-14 -125h-86l-13 125v118h113v-118z" />
    <glyph glyph-name="quotedbl" unicode="&#x22;" horiz-adv-x="401" 
d="M163 532l-14 -125h-86l-13 125v118h113v-118zM351 532l-14 -125h-86l-13 125v118h113v-118z" />
    <glyph glyph-name="bullet" unicode="&#x2022;" horiz-adv-x="254" 
d="M127 234c-54 0 -97 42 -97 94s43 93 97 93c53 0 96 -41 96 -93s-43 -94 -96 -94z" />
    <glyph glyph-name="ampersand" unicode="&#x26;" horiz-adv-x="649" 
d="M238 83c53 0 94 17 134 69l-138 152l-24 -18c-52 -37 -75 -67 -75 -113c0 -57 45 -90 103 -90zM511 0l-75 83c-57 -64 -122 -95 -207 -95c-120 0 -202 73 -202 171c0 81 33 133 131 198l19 13c-29 41 -42 80 -42 118c0 96 77 174 180 174c90 0 158 -47 189 -142l-89 -45
c-18 62 -53 90 -99 90c-48 0 -76 -33 -76 -78c0 -33 15 -57 59 -105l134 -146l69 121h104l-103 -178c-2 -4 -5 -8 -7 -12l153 -167h-138z" />
    <glyph glyph-name="paragraph" unicode="&#xb6;" horiz-adv-x="622" 
d="M312 0h-97v312h-5c-116 0 -186 68 -186 171c0 100 70 167 186 167h389v-101h-72v-549h-97v549h-118v-549z" />
    <glyph glyph-name="dagger" unicode="&#x2020;" horiz-adv-x="427" 
d="M409 399h-145v-399h-102v399h-145v91h145v160h102v-160h145v-91z" />
    <glyph glyph-name="daggerdbl" unicode="&#x2021;" horiz-adv-x="460" 
d="M426 152h-145v-152h-102v152h-145v91h145v166h-145v91h145v150h102v-150h145v-91h-145v-166h145v-91z" />
    <glyph glyph-name="section" unicode="&#xa7;" horiz-adv-x="566" 
d="M325 143c19 -5 37 -11 56 -17c26 12 37 40 37 70c0 65 -72 84 -175 111c-20 5 -40 11 -59 18c-25 -14 -36 -40 -36 -68c0 -68 72 -86 177 -114zM283 -212c-120 0 -224 50 -260 141l92 45c39 -67 103 -91 170 -91c84 0 121 31 121 77c0 57 -63 76 -162 102
c-112 29 -205 68 -205 175c0 52 27 97 74 124c-38 28 -64 68 -64 126c0 101 87 175 222 175c115 0 211 -53 242 -146l-92 -41c-30 59 -82 92 -154 92c-69 0 -108 -30 -108 -77c0 -57 59 -75 165 -102c109 -28 203 -68 203 -178c0 -48 -26 -93 -73 -121
c37 -27 63 -65 63 -120c0 -107 -91 -181 -234 -181z" />
    <glyph glyph-name="asterisk" unicode="*" horiz-adv-x="358" 
d="M232 335l-54 95l-53 -94l-79 57l74 80l-106 21l30 93l99 -45l-13 108h98l-13 -109l99 45l30 -93l-106 -21l73 -80z" />
    <glyph glyph-name="trademark" unicode="&#x2122;" horiz-adv-x="670" 
d="M279 588h-83v-214h-69v214h-82v62h234v-62zM428 434l-49 131l-6 -191h-64l13 276h87l54 -150l54 150h87l12 -276h-72l-5 187l-50 -127h-61z" />
    <glyph glyph-name="registered" unicode="&#xae;" horiz-adv-x="742" 
d="M371 -12c-185 0 -337 152 -337 337s152 337 337 337s336 -152 336 -337s-151 -337 -336 -337zM371 55c154 0 265 122 265 270c0 147 -111 270 -265 270c-155 0 -265 -123 -265 -270c0 -148 110 -270 265 -270zM396 435h-71v-91h71c27 0 46 15 46 45c0 33 -19 46 -46 46z
M445 179l-55 109h-65v-109h-69v313h142c75 0 115 -40 115 -98c0 -42 -20 -74 -58 -89l67 -126h-77z" />
    <glyph glyph-name="copyright" unicode="&#xa9;" horiz-adv-x="742" 
d="M371 -12c-185 0 -337 152 -337 337s152 337 337 337s336 -152 336 -337s-151 -337 -336 -337zM371 55c154 0 265 122 265 270c0 147 -111 270 -265 270c-155 0 -265 -123 -265 -270c0 -148 110 -270 265 -270zM218 325c0 93 62 163 157 163c68 0 118 -35 142 -90l-64 -25
c-15 33 -40 50 -75 50c-51 0 -84 -37 -84 -98s33 -99 84 -99c35 0 60 17 75 50l64 -24c-24 -55 -74 -90 -142 -90c-95 0 -157 70 -157 163z" />
    <glyph glyph-name="at" unicode="@" horiz-adv-x="954" 
d="M472 -212c-247 0 -432 183 -432 437c0 244 197 437 437 437c250 0 437 -177 437 -412c0 -125 -52 -255 -176 -255c-74 0 -117 36 -131 87c-32 -63 -88 -93 -160 -93c-125 0 -209 103 -209 236c0 132 84 236 209 236c68 0 121 -27 152 -85v74h99v-328c0 -45 19 -60 48 -60
c60 0 96 70 96 188c0 194 -142 345 -365 345c-213 0 -364 -168 -364 -370c0 -212 143 -370 359 -370c86 0 155 21 216 57l31 -59c-72 -42 -151 -65 -247 -65zM469 74c78 0 127 60 127 151s-49 151 -127 151c-79 0 -128 -60 -128 -151s49 -151 128 -151z" />
    <glyph glyph-name="ordfeminine" unicode="&#xaa;" horiz-adv-x="373" 
d="M157 408c44 0 78 23 78 61v8h-88c-28 0 -40 -14 -40 -32c0 -25 20 -37 50 -37zM244 359v38c-23 -32 -63 -46 -105 -46c-69 0 -113 37 -113 91c0 51 38 84 99 84h95c12 0 15 3 15 12v3c0 38 -24 58 -58 58c-33 0 -55 -15 -68 -45l-75 18c23 57 75 90 144 90
c89 0 139 -50 139 -128v-175h-73z" />
    <glyph glyph-name="ordmasculine" unicode="&#xba;" horiz-adv-x="374" 
d="M187 352c-93 0 -161 70 -161 155c0 86 67 155 161 155s160 -69 160 -155c0 -85 -66 -155 -160 -155zM187 421c40 0 76 31 76 86c0 54 -36 86 -76 86c-42 0 -76 -32 -76 -86c0 -55 35 -86 76 -86z" />
    <glyph glyph-name="numbersign" unicode="#" horiz-adv-x="648" 
d="M379 253l28 147h-146l-28 -147h146zM331 0l33 173h-146l-33 -173h-91l33 173h-100v80h115l28 147h-113v80h128l32 170h91l-32 -170h146l32 170h92l-32 -170h109v-80h-125l-28 -147h123v-80h-138l-33 -173h-91z" />
    <glyph glyph-name="Euro" unicode="&#x20ac;" horiz-adv-x="706" 
d="M684 151c-51 -98 -147 -163 -276 -163c-152 0 -258 92 -295 226h-92v80h78c-1 10 -1 20 -1 31c0 13 1 26 2 39h-79v80h95c40 129 147 218 292 218c127 0 222 -65 271 -164l-95 -51c-40 80 -99 118 -171 118c-78 0 -144 -42 -176 -121h221l-10 -80h-230
c-1 -12 -2 -25 -2 -39c0 -11 0 -21 1 -31h224l-9 -80h-198c31 -83 99 -128 179 -128c74 0 134 38 176 118z" />
    <glyph glyph-name="dollar" unicode="$" horiz-adv-x="546" 
d="M328 -101h-95v92c-94 13 -172 61 -204 138l94 52c37 -67 93 -95 158 -95c77 0 112 35 112 84c0 127 -346 86 -346 310c0 97 74 169 186 180v91h95v-95c87 -16 154 -66 182 -145l-94 -48c-31 63 -81 101 -151 101c-65 0 -103 -31 -103 -79c0 -136 346 -95 346 -310
c0 -93 -69 -168 -180 -184v-92z" />
    <glyph glyph-name="yen" unicode="&#xa5;" horiz-adv-x="592" 
d="M539 203h-187v-203h-112v203h-186v85h161l-39 75h-122v85h77l-106 202h118l161 -311l160 311h103l-106 -202h78v-85h-122l-40 -75h162v-85z" />
    <glyph glyph-name="sterling" unicode="&#xa3;" horiz-adv-x="561" 
d="M532 96v-96h-493v87l30 8c52 15 77 41 77 88c0 30 -7 56 -16 83h-91v87h58c-10 31 -18 65 -18 105c0 107 73 204 223 204c104 0 190 -58 225 -156l-95 -43c-26 60 -66 100 -131 100c-67 0 -107 -44 -107 -110c0 -37 8 -69 19 -100h244v-87h-214c7 -24 12 -48 12 -75
c0 -42 -14 -73 -47 -95h324z" />
    <glyph glyph-name="uni20B9" unicode="&#x20b9;" horiz-adv-x="521" 
d="M476 410h-93c-16 -94 -91 -156 -208 -162l221 -248h-140l-224 253v74h122c51 0 100 23 114 83h-236v85h235c-17 51 -64 70 -114 70h-121v85h471l-9 -85h-143c15 -20 25 -44 30 -70h104z" />
    <glyph glyph-name="cent" unicode="&#xa2;" horiz-adv-x="512" 
d="M490 208c-32 -64 -88 -113 -169 -126v-82h-95v82c-121 20 -194 119 -194 243c0 123 73 218 194 238v87h95v-87c81 -13 137 -62 169 -125l-90 -35c-30 49 -65 73 -121 73c-84 0 -135 -56 -135 -151c0 -98 51 -155 135 -155c56 0 91 24 121 73z" />
    <glyph glyph-name="florin" unicode="&#x192;" horiz-adv-x="462" 
d="M-5 -206c-40 0 -78 8 -110 23l43 78c18 -7 43 -11 62 -11c50 0 82 26 92 100l59 416h-77l12 90h78l3 22c17 119 93 180 196 180c42 0 80 -8 110 -23l-43 -78c-18 7 -43 11 -62 11c-50 0 -82 -24 -91 -90l-3 -22h132l-12 -90h-133l-59 -416c-18 -127 -93 -190 -197 -190z
" />
    <glyph glyph-name="currency" unicode="&#xa4;" 
d="M404 104l-75 75c-23 -11 -50 -17 -79 -17s-56 6 -79 17l-76 -75l-68 68l74 73c-13 24 -20 51 -20 81s7 58 20 81l-74 74l68 68l76 -76c23 11 50 17 79 17s56 -6 79 -17l75 76l68 -68l-73 -74c13 -23 20 -51 20 -81s-7 -58 -20 -81l73 -73zM250 247c41 0 76 25 76 79
s-35 80 -76 80s-76 -26 -76 -80s35 -79 76 -79z" />
    <glyph glyph-name="zero" unicode="0" horiz-adv-x="632" 
d="M316 -12c-166 0 -274 138 -274 337c0 198 108 337 274 337s273 -139 273 -337c0 -199 -107 -337 -273 -337zM316 93c89 0 155 74 155 232s-66 232 -155 232c-90 0 -155 -74 -155 -232s65 -232 155 -232z" />
    <glyph glyph-name="one" unicode="1" horiz-adv-x="342" 
d="M249 0h-113v515h-102v90c64 0 108 15 129 52h86v-657z" />
    <glyph glyph-name="two" unicode="2" horiz-adv-x="541" 
d="M508 0h-474v89l191 156c120 97 150 147 150 212s-41 107 -109 107s-111 -42 -144 -110l-100 37c42 104 127 171 244 171c141 0 226 -91 226 -205c0 -92 -41 -166 -193 -276l-111 -84h320v-97z" />
    <glyph glyph-name="three" unicode="3" horiz-adv-x="553" 
d="M275 -12c-122 0 -216 63 -256 166l94 39c32 -68 82 -107 161 -107c80 0 131 45 131 117c0 62 -41 106 -117 106c-30 0 -67 -8 -95 -28l-59 70l217 202h-302v97h444v-84l-190 -176h8c133 0 208 -80 208 -188c0 -119 -92 -214 -244 -214z" />
    <glyph glyph-name="four" unicode="4" horiz-adv-x="574" 
d="M556 130h-98v-130h-107v130h-331v91l317 429h121v-429h98v-91zM351 221v304l-221 -304h221z" />
    <glyph glyph-name="five" unicode="5" horiz-adv-x="548" 
d="M277 -12c-119 0 -212 60 -251 160l94 39c30 -64 78 -101 155 -101s124 45 124 118c0 63 -42 110 -121 110c-45 0 -89 -17 -127 -46l-82 39l26 343h393v-97h-301l-13 -175c37 19 74 27 116 27c149 0 222 -91 222 -202c0 -119 -86 -215 -235 -215z" />
    <glyph glyph-name="six" unicode="6" horiz-adv-x="589" 
d="M547 210c0 -133 -103 -222 -238 -222c-156 0 -261 99 -261 319c0 223 111 355 268 355c102 0 182 -50 222 -134l-89 -48c-31 53 -72 84 -133 84c-81 0 -152 -61 -162 -223c38 52 97 81 169 81c131 0 224 -85 224 -212zM307 86c72 0 132 45 132 124c0 76 -61 120 -132 120
c-74 0 -137 -43 -137 -117c0 -78 62 -127 137 -127z" />
    <glyph glyph-name="seven" unicode="7" horiz-adv-x="476" 
d="M228 0h-118l219 553h-317v97h435v-81z" />
    <glyph glyph-name="eight" unicode="8" horiz-adv-x="592" 
d="M296 -12c-161 0 -258 78 -258 191c0 71 46 126 124 154c-62 30 -98 83 -98 148c0 101 87 181 232 181c146 0 233 -80 233 -181c0 -65 -36 -118 -99 -148c79 -28 124 -83 124 -154c0 -113 -97 -191 -258 -191zM296 379c71 0 126 33 126 96c0 61 -54 98 -126 98
s-126 -37 -126 -98c0 -63 56 -96 126 -96zM296 80c83 0 145 35 145 104c0 66 -64 103 -145 103s-145 -37 -145 -103c0 -69 63 -104 145 -104z" />
    <glyph glyph-name="nine" unicode="9" horiz-adv-x="589" 
d="M282 564c-72 0 -132 -45 -132 -124c0 -76 61 -120 132 -120c74 0 137 43 137 117c0 78 -62 127 -137 127zM273 -12c-102 0 -182 50 -222 134l89 48c31 -53 72 -84 133 -84c81 0 152 61 162 223c-38 -52 -97 -81 -169 -81c-131 0 -224 85 -224 212c0 133 103 222 238 222
c156 0 261 -99 261 -319c0 -223 -111 -355 -268 -355z" />
    <glyph glyph-name="degree" unicode="&#xb0;" horiz-adv-x="370" 
d="M185 391c-83 0 -140 58 -140 135c0 78 57 136 140 136c82 0 140 -58 140 -136c0 -77 -58 -135 -140 -135zM185 460c34 0 63 21 63 66c0 46 -29 67 -63 67s-64 -21 -64 -67c0 -45 30 -66 64 -66z" />
    <glyph glyph-name="percent" unicode="%" horiz-adv-x="755" 
d="M176 334c-89 0 -151 70 -151 164s62 164 151 164c90 0 152 -70 152 -164s-62 -164 -152 -164zM505 650h90l-346 -650h-90zM176 409c36 0 68 28 68 89c0 60 -32 89 -68 89s-68 -29 -68 -89c0 -61 32 -89 68 -89zM578 316c90 0 152 -70 152 -164s-62 -164 -152 -164
c-89 0 -151 70 -151 164s62 164 151 164zM578 241c-36 0 -68 -28 -68 -89s32 -89 68 -89s68 28 68 89s-32 89 -68 89z" />
    <glyph glyph-name="perthousand" unicode="&#x2030;" horiz-adv-x="1110" 
d="M176 334c-89 0 -151 70 -151 164s62 164 151 164c90 0 152 -70 152 -164s-62 -164 -152 -164zM505 650h90l-346 -650h-90zM176 409c36 0 68 28 68 89c0 60 -32 89 -68 89s-68 -29 -68 -89c0 -61 32 -89 68 -89zM933 316c90 0 152 -70 152 -164s-62 -164 -152 -164
c-89 0 -151 70 -151 164s62 164 151 164zM578 316c90 0 152 -70 152 -164s-62 -164 -152 -164c-89 0 -151 70 -151 164s62 164 151 164zM933 241c-36 0 -68 -29 -68 -89c0 -61 32 -89 68 -89s68 28 68 89c0 60 -32 89 -68 89zM578 241c-36 0 -68 -29 -68 -89
c0 -61 32 -89 68 -89s68 28 68 89c0 60 -32 89 -68 89z" />
    <glyph glyph-name="fraction" unicode="&#x2044;" horiz-adv-x="136" 
d="M195 650h91l-345 -650h-91z" />
    <glyph glyph-name="uni2215" unicode="&#x2215;" horiz-adv-x="136" 
d="M195 650h91l-345 -650h-91z" />
    <glyph glyph-name="zerosuperior" unicode="&#x2070;" horiz-adv-x="393" 
d="M196 309c-92 0 -161 69 -161 174c0 102 69 173 161 173c91 0 161 -71 161 -173c0 -105 -70 -174 -161 -174zM196 384c37 0 74 27 74 99c0 71 -37 98 -74 98s-74 -27 -74 -98c0 -72 37 -99 74 -99z" />
    <glyph glyph-name="onesuperior" unicode="&#xb9;" horiz-adv-x="254" 
d="M183 315h-82v244h-60v59c41 0 72 9 85 32h57v-335z" />
    <glyph glyph-name="twosuperior" unicode="&#xb2;" horiz-adv-x="340" 
d="M303 315h-262v58l91 71c65 51 78 72 78 102c0 24 -18 43 -46 43c-27 0 -50 -18 -71 -60l-66 29c27 62 76 98 141 98c79 0 127 -47 127 -107c0 -64 -28 -93 -134 -159l-16 -10h158v-65z" />
    <glyph glyph-name="threesuperior" unicode="&#xb3;" horiz-adv-x="328" 
d="M167 309c-69 0 -123 31 -143 81l62 29c16 -32 46 -46 80 -46c37 0 56 20 56 48c0 26 -18 42 -50 42c-15 0 -28 -4 -48 -14l-34 47l99 89h-148v65h244v-56l-85 -80c65 -5 101 -46 101 -97c0 -60 -49 -108 -134 -108z" />
    <glyph glyph-name="foursuperior" unicode="&#x2074;" horiz-adv-x="336" 
d="M187 433v141l-97 -141h97zM312 373h-47v-58h-78v58h-170v60l155 217h93v-217h47v-60z" />
    <glyph glyph-name="onehalf" unicode="&#xbd;" horiz-adv-x="739" 
d="M468 650h91l-345 -650h-91zM183 315h-82v244h-60v59c41 0 72 9 85 32h57v-335zM702 0h-262v58l91 71c65 51 78 72 78 102c0 24 -18 43 -46 43c-27 0 -50 -18 -71 -60l-66 29c27 62 76 98 141 98c79 0 127 -47 127 -107c0 -64 -28 -93 -134 -159l-16 -10h158v-65z" />
    <glyph glyph-name="onequarter" unicode="&#xbc;" horiz-adv-x="705" 
d="M468 650h91l-345 -650h-91zM183 315h-82v244h-60v59c41 0 72 9 85 32h57v-335zM556 118v141l-97 -141h97zM681 58h-47v-58h-78v58h-170v60l155 217h93v-217h47v-60z" />
    <glyph glyph-name="threequarters" unicode="&#xbe;" horiz-adv-x="763" 
d="M526 650h91l-345 -650h-91zM167 309c-69 0 -123 31 -143 81l62 29c16 -32 46 -46 80 -46c37 0 56 20 56 48c0 26 -18 42 -50 42c-15 0 -28 -4 -48 -14l-34 47l99 89h-148v65h244v-56l-85 -80c65 -5 101 -46 101 -97c0 -60 -49 -108 -134 -108zM614 118v141l-97 -141h97z
M739 58h-47v-58h-78v58h-170v60l155 217h93v-217h47v-60z" />
    <glyph glyph-name="plus" unicode="+" horiz-adv-x="454" 
d="M406 289h-135v-135h-88v135h-136v86h136v135h88v-135h135v-86z" />
    <glyph glyph-name="minus" unicode="&#x2212;" horiz-adv-x="454" 
d="M47 375h359v-86h-359v86z" />
    <glyph glyph-name="multiply" unicode="&#xd7;" horiz-adv-x="454" 
d="M331 165l-104 105l-104 -104l-62 62l104 104l-105 104l62 62l105 -104l103 103l62 -62l-103 -103l104 -105z" />
    <glyph glyph-name="divide" unicode="&#xf7;" horiz-adv-x="454" 
d="M227 440c-38 0 -69 29 -69 66c0 36 31 66 69 66s69 -30 69 -66c0 -37 -31 -66 -69 -66zM47 289v86h359v-86h-359zM227 92c-38 0 -69 29 -69 66c0 36 31 66 69 66s69 -30 69 -66c0 -37 -31 -66 -69 -66z" />
    <glyph glyph-name="equal" unicode="=" horiz-adv-x="454" 
d="M47 375v86h359v-86h-359zM47 202v86h359v-86h-359z" />
    <glyph glyph-name="logicalnot" unicode="&#xac;" horiz-adv-x="454" 
d="M406 164h-88v125h-271v86h359v-211z" />
    <glyph glyph-name="asciitilde" unicode="~" horiz-adv-x="454" 
d="M407 375v-49c0 -74 -33 -116 -92 -116c-71 0 -120 68 -160 68c-19 0 -26 -11 -26 -35v-38h-83v48c0 75 35 117 93 117c71 0 114 -69 160 -69c18 0 26 11 26 35v39h82z" />
    <glyph glyph-name="less" unicode="&#x3c;" horiz-adv-x="454" 
d="M401 145l-359 108v125l359 104v-100l-276 -65l276 -72v-100z" />
    <glyph glyph-name="greater" unicode="&#x3e;" horiz-adv-x="454" 
d="M52 145v101l276 65l-276 72v99l359 -108v-125z" />
    <glyph glyph-name="plusminus" unicode="&#xb1;" horiz-adv-x="454" 
d="M411 309h-135v-135h-88v135h-136v86h136v135h88v-135h135v-86zM52 86h359v-86h-359v86z" />
    <glyph glyph-name="asciicircum" unicode="^" horiz-adv-x="454" 
d="M304 135l-79 334l-80 -334h-94l112 399h128l111 -399h-98z" />
    <glyph glyph-name="notequal" unicode="&#x2260;" horiz-adv-x="454" 
d="M406 202h-183l-33 -99l-76 25l25 74h-92v86h121l29 87h-150v86h180l33 99l76 -25l-25 -74h95v-86h-124l-29 -87h153v-86z" />
    <glyph glyph-name="approxequal" unicode="&#x2248;" horiz-adv-x="454" 
d="M407 515v-49c0 -74 -33 -116 -92 -116c-71 0 -120 68 -160 68c-19 0 -26 -11 -26 -35v-38h-83v48c0 75 35 117 93 117c71 0 114 -69 160 -69c18 0 26 11 26 35v39h82zM407 305v-49c0 -74 -33 -116 -92 -116c-71 0 -120 68 -160 68c-19 0 -26 -11 -26 -35v-38h-83v48
c0 75 35 117 93 117c71 0 114 -69 160 -69c18 0 26 11 26 35v39h82z" />
    <glyph glyph-name="lessequal" unicode="&#x2264;" horiz-adv-x="454" 
d="M404 170l-359 108v125l359 104v-100l-276 -65l276 -72v-100zM45 0v86h359v-86h-359z" />
    <glyph glyph-name="greaterequal" unicode="&#x2265;" horiz-adv-x="454" 
d="M50 170v101l276 65l-276 72v99l359 -108v-125zM50 0v86h359v-86h-359z" />
    <glyph glyph-name="infinity" unicode="&#x221e;" horiz-adv-x="678" 
d="M484 166c-69 0 -109 33 -145 85c-34 -50 -73 -83 -145 -83c-87 0 -158 58 -158 157c0 98 71 157 158 157c70 0 111 -34 146 -85c36 51 74 83 144 83c87 0 158 -58 158 -157c0 -98 -71 -157 -158 -157zM197 247c47 0 72 28 98 75c-27 48 -52 80 -98 80
c-42 0 -74 -28 -74 -77c0 -48 32 -78 74 -78zM481 246c41 0 73 29 73 77c0 49 -32 78 -73 78c-48 0 -74 -29 -99 -74c27 -48 51 -81 99 -81z" />
    <glyph glyph-name="lozenge" unicode="&#x25ca;" horiz-adv-x="527" 
d="M18 325l180 325h130l181 -325l-181 -325h-130zM128 325l135 -256l135 256l-134 256z" />
    <glyph glyph-name="radical" unicode="&#x221a;" horiz-adv-x="606" 
d="M229 0l-133 392l-66 -12l-15 86l164 30l127 -411l207 665h107l-247 -750h-144z" />
    <glyph glyph-name="integral" unicode="&#x222b;" horiz-adv-x="370" 
d="M18 -212c-39 0 -76 9 -104 23l32 79c19 -8 44 -12 65 -12c45 0 76 25 76 90v544c0 118 75 180 179 180c40 0 77 -9 105 -23l-32 -79c-19 8 -44 12 -63 12c-47 0 -79 -25 -79 -90v-544c0 -118 -75 -180 -179 -180z" />
    <glyph glyph-name="partialdiff" unicode="&#x2202;" horiz-adv-x="593" 
d="M256 -12c-133 0 -226 83 -226 208c0 119 95 217 241 217c66 0 132 -23 170 -85c1 17 1 33 1 48c0 137 -56 189 -131 189c-62 0 -103 -28 -144 -81l-77 54c58 83 138 124 222 124c143 0 236 -104 236 -289c0 -238 -104 -385 -292 -385zM407 214c0 69 -53 108 -130 108
c-90 0 -140 -61 -140 -124c0 -72 52 -113 127 -113c91 0 143 63 143 129z" />
    <glyph glyph-name="product" unicode="&#x220f;" horiz-adv-x="724" 
d="M507 -100v654h-290v-654h-112v654h-72v96h658v-96h-72v-654h-112z" />
    <glyph glyph-name="pi" unicode="&#x3c0;" horiz-adv-x="678" 
d="M652 6c-25 -11 -54 -18 -86 -18c-88 0 -142 51 -142 144v268h-194v-400h-110v400h-93v90h616v-90h-109v-263c0 -36 19 -53 49 -53c17 0 32 4 51 12z" />
    <glyph glyph-name="mu" unicode="&#xb5;" horiz-adv-x="605" 
d="M263 -12c-32 0 -60 5 -83 15v-203h-103v690h110v-284c0 -76 34 -121 109 -121c73 0 116 47 116 126v279h110v-490h-103v88c-29 -68 -86 -100 -156 -100z" />
    <glyph glyph-name="summation" unicode="&#x2211;" horiz-adv-x="559" 
d="M511 -4v-96h-466v86l190 296l-190 282v86h466v-96h-334l160 -238v-68l-160 -252h334z" />
    <glyph glyph-name="Omega" unicode="&#x2126;" horiz-adv-x="740" 
d="M330 83v-83h-280v96h144c-83 40 -148 132 -148 254c0 171 133 312 324 312c190 0 323 -141 323 -312c0 -122 -66 -214 -151 -254h148v-96h-279v83c80 43 162 112 162 252c0 138 -93 221 -203 221s-203 -83 -203 -221c0 -143 82 -209 163 -252z" />
    <glyph glyph-name="uni03A9" unicode="&#x3a9;" horiz-adv-x="740" 
d="M330 83v-83h-280v96h144c-83 40 -148 132 -148 254c0 171 133 312 324 312c190 0 323 -141 323 -312c0 -122 -66 -214 -151 -254h148v-96h-279v83c80 43 162 112 162 252c0 138 -93 221 -203 221s-203 -83 -203 -221c0 -143 82 -209 163 -252z" />
    <glyph glyph-name="Delta" unicode="&#x2206;" horiz-adv-x="586" 
d="M433 96l-146 470l-146 -470h292zM26 0v61l194 589h145l195 -589v-61h-534z" />
    <glyph glyph-name="uni0394" unicode="&#x394;" horiz-adv-x="586" 
d="M433 96l-146 470l-146 -470h292zM26 0v61l194 589h145l195 -589v-61h-534z" />
    <glyph glyph-name="uni2113" unicode="&#x2113;" horiz-adv-x="468" 
d="M264 -12c-101 0 -162 61 -162 173v7l-66 -30l-31 81l97 44v206c0 130 72 193 165 193c96 0 163 -67 163 -170c0 -113 -56 -191 -218 -273v-53c0 -57 24 -82 66 -82c30 0 54 10 90 34l37 -82c-45 -33 -90 -48 -141 -48zM212 489v-173c89 53 117 101 117 178
c0 51 -21 77 -59 77c-36 0 -58 -24 -58 -82z" />
    <glyph glyph-name="estimated" unicode="&#x212e;" horiz-adv-x="663" 
d="M641 257h-496c-3 0 -4 -1 -4 -3v-150c0 -6 2 -12 7 -18c47 -49 113 -80 188 -80c80 0 149 34 197 90h44c-56 -64 -142 -107 -242 -107c-169 0 -306 123 -306 275s137 277 306 277s306 -125 306 -277v-7zM529 276v151c0 7 -3 14 -8 19c-47 48 -112 78 -185 78
s-140 -30 -187 -81c-5 -4 -8 -10 -8 -19v-148c0 -3 1 -4 4 -4h381c2 0 3 1 3 4z" />
    </font>
</defs>
</svg>
